<?xml version="1.0" encoding="utf-8" standalone="no"?>
<!DOCTYPE svg PUBLIC "-//W3C//DTD SVG 1.1//EN"
  "http://www.w3.org/Graphics/SVG/1.1/DTD/svg11.dtd">
<svg xmlns:xlink="http://www.w3.org/1999/xlink" width="347.04pt" height="568.8pt" viewBox="0 0 347.04 568.8" xmlns="http://www.w3.org/2000/svg" version="1.1">
 <metadata>
  <rdf:RDF xmlns:dc="http://purl.org/dc/elements/1.1/" xmlns:cc="http://creativecommons.org/ns#" xmlns:rdf="http://www.w3.org/1999/02/22-rdf-syntax-ns#">
   <cc:Work>
    <dc:type rdf:resource="http://purl.org/dc/dcmitype/StillImage"/>
    <dc:date>2026-07-10T18:17:19.834874</dc:date>
    <dc:format>image/svg+xml</dc:format>
    <dc:creator>
     <cc:Agent>
      <dc:title>Matplotlib v3.10.8, https://matplotlib.org/</dc:title>
     </cc:Agent>
    </dc:creator>
   </cc:Work>
  </rdf:RDF>
 </metadata>
 <defs>
  <style type="text/css">*{stroke-linejoin: round; stroke-linecap: butt}</style>
 </defs>
 <g id="figure_1">
  <g id="patch_1">
   <path d="M 0 568.8 
L 347.04 568.8 
L 347.04 0 
L 0 0 
z
" style="fill: #ffffff"/>
  </g>
  <g id="axes_1">
   <g id="patch_2">
    <path d="M 7.2 595.9728 
C 16.315773 595.9728 25.059415 592.351065 31.50524 585.90524 
C 37.951065 579.459415 41.5728 570.715773 41.5728 561.6 
C 41.5728 552.484227 37.951065 543.740585 31.50524 537.29476 
C 25.059415 530.848935 16.315773 527.2272 7.2 527.2272 
C -1.915773 527.2272 -10.659415 530.848935 -17.10524 537.29476 
C -23.551065 543.740585 -27.1728 552.484227 -27.1728 561.6 
C -27.1728 570.715773 -23.551065 579.459415 -17.10524 585.90524 
C -10.659415 592.351065 -1.915773 595.9728 7.2 595.9728 
" clip-path="url(#p63c13b7aa8)" style="fill: none; stroke: #000000; stroke-width: 2.2; stroke-linejoin: miter"/>
   </g>
   <g id="patch_3">
    <path d="M 7.2 540.5328 
C 16.315773 540.5328 25.059415 536.911065 31.50524 530.46524 
C 37.951065 524.019415 41.5728 515.275773 41.5728 506.16 
C 41.5728 497.044227 37.951065 488.300585 31.50524 481.85476 
C 25.059415 475.408935 16.315773 471.7872 7.2 471.7872 
C -1.915773 471.7872 -10.659415 475.408935 -17.10524 481.85476 
C -23.551065 488.300585 -27.1728 497.044227 -27.1728 506.16 
C -27.1728 515.275773 -23.551065 524.019415 -17.10524 530.46524 
C -10.659415 536.911065 -1.915773 540.5328 7.2 540.5328 
L 7.2 540.5328 
z
" clip-path="url(#p63c13b7aa8)" style="fill: none; stroke: #000000; stroke-width: 2.2; stroke-linejoin: miter"/>
   </g>
   <g id="patch_4">
    <path d="M 7.2 485.0928 
C 16.315773 485.0928 25.059415 481.471065 31.50524 475.02524 
C 37.951065 468.579415 41.5728 459.835773 41.5728 450.72 
C 41.5728 441.604227 37.951065 432.860585 31.50524 426.41476 
C 25.059415 419.968935 16.315773 416.3472 7.2 416.3472 
C -1.915773 416.3472 -10.659415 419.968935 -17.10524 426.41476 
C -23.551065 432.860585 -27.1728 441.604227 -27.1728 450.72 
C -27.1728 459.835773 -23.551065 468.579415 -17.10524 475.02524 
C -10.659415 481.471065 -1.915773 485.0928 7.2 485.0928 
L 7.2 485.0928 
z
" clip-path="url(#p63c13b7aa8)" style="fill: none; stroke: #000000; stroke-width: 2.2; stroke-linejoin: miter"/>
   </g>
   <g id="patch_5">
    <path d="M 7.2 429.6528 
C 16.315773 429.6528 25.059415 426.031065 31.50524 419.58524 
C 37.951065 413.139415 41.5728 404.395773 41.5728 395.28 
C 41.5728 386.164227 37.951065 377.420585 31.50524 370.97476 
C 25.059415 364.528935 16.315773 360.9072 7.2 360.9072 
C -1.915773 360.9072 -10.659415 364.528935 -17.10524 370.97476 
C -23.551065 377.420585 -27.1728 386.164227 -27.1728 395.28 
C -27.1728 404.395773 -23.551065 413.139415 -17.10524 419.58524 
C -10.659415 426.031065 -1.915773 429.6528 7.2 429.6528 
L 7.2 429.6528 
z
" clip-path="url(#p63c13b7aa8)" style="fill: none; stroke: #000000; stroke-width: 2.2; stroke-linejoin: miter"/>
   </g>
   <g id="patch_6">
    <path d="M 7.2 374.2128 
C 16.315773 374.2128 25.059415 370.591065 31.50524 364.14524 
C 37.951065 357.699415 41.5728 348.955773 41.5728 339.84 
C 41.5728 330.724227 37.951065 321.980585 31.50524 315.53476 
C 25.059415 309.088935 16.315773 305.4672 7.2 305.4672 
C -1.915773 305.4672 -10.659415 309.088935 -17.10524 315.53476 
C -23.551065 321.980585 -27.1728 330.724227 -27.1728 339.84 
C -27.1728 348.955773 -23.551065 357.699415 -17.10524 364.14524 
C -10.659415 370.591065 -1.915773 374.2128 7.2 374.2128 
L 7.2 374.2128 
z
" clip-path="url(#p63c13b7aa8)" style="fill: none; stroke: #000000; stroke-width: 2.2; stroke-linejoin: miter"/>
   </g>
   <g id="patch_7">
    <path d="M 7.2 318.7728 
C 16.315773 318.7728 25.059415 315.151065 31.50524 308.70524 
C 37.951065 302.259415 41.5728 293.515773 41.5728 284.4 
C 41.5728 275.284227 37.951065 266.540585 31.50524 260.09476 
C 25.059415 253.648935 16.315773 250.0272 7.2 250.0272 
C -1.915773 250.0272 -10.659415 253.648935 -17.10524 260.09476 
C -23.551065 266.540585 -27.1728 275.284227 -27.1728 284.4 
C -27.1728 293.515773 -23.551065 302.259415 -17.10524 308.70524 
C -10.659415 315.151065 -1.915773 318.7728 7.2 318.7728 
L 7.2 318.7728 
z
" clip-path="url(#p63c13b7aa8)" style="fill: none; stroke: #000000; stroke-width: 2.2; stroke-linejoin: miter"/>
   </g>
   <g id="patch_8">
    <path d="M 7.2 263.3328 
C 16.315773 263.3328 25.059415 259.711065 31.50524 253.26524 
C 37.951065 246.819415 41.5728 238.075773 41.5728 228.96 
C 41.5728 219.844227 37.951065 211.100585 31.50524 204.65476 
C 25.059415 198.208935 16.315773 194.5872 7.2 194.5872 
C -1.915773 194.5872 -10.659415 198.208935 -17.10524 204.65476 
C -23.551065 211.100585 -27.1728 219.844227 -27.1728 228.96 
C -27.1728 238.075773 -23.551065 246.819415 -17.10524 253.26524 
C -10.659415 259.711065 -1.915773 263.3328 7.2 263.3328 
L 7.2 263.3328 
z
" clip-path="url(#p63c13b7aa8)" style="fill: none; stroke: #000000; stroke-width: 2.2; stroke-linejoin: miter"/>
   </g>
   <g id="patch_9">
    <path d="M 7.2 207.8928 
C 16.315773 207.8928 25.059415 204.271065 31.50524 197.82524 
C 37.951065 191.379415 41.5728 182.635773 41.5728 173.52 
C 41.5728 164.404227 37.951065 155.660585 31.50524 149.21476 
C 25.059415 142.768935 16.315773 139.1472 7.2 139.1472 
C -1.915773 139.1472 -10.659415 142.768935 -17.10524 149.21476 
C -23.551065 155.660585 -27.1728 164.404227 -27.1728 173.52 
C -27.1728 182.635773 -23.551065 191.379415 -17.10524 197.82524 
C -10.659415 204.271065 -1.915773 207.8928 7.2 207.8928 
L 7.2 207.8928 
z
" clip-path="url(#p63c13b7aa8)" style="fill: none; stroke: #000000; stroke-width: 2.2; stroke-linejoin: miter"/>
   </g>
   <g id="patch_10">
    <path d="M 7.2 152.4528 
C 16.315773 152.4528 25.059415 148.831065 31.50524 142.38524 
C 37.951065 135.939415 41.5728 127.195773 41.5728 118.08 
C 41.5728 108.964227 37.951065 100.220585 31.50524 93.77476 
C 25.059415 87.328935 16.315773 83.7072 7.2 83.7072 
C -1.915773 83.7072 -10.659415 87.328935 -17.10524 93.77476 
C -23.551065 100.220585 -27.1728 108.964227 -27.1728 118.08 
C -27.1728 127.195773 -23.551065 135.939415 -17.10524 142.38524 
C -10.659415 148.831065 -1.915773 152.4528 7.2 152.4528 
L 7.2 152.4528 
z
" clip-path="url(#p63c13b7aa8)" style="fill: none; stroke: #000000; stroke-width: 2.2; stroke-linejoin: miter"/>
   </g>
   <g id="patch_11">
    <path d="M 7.2 97.0128 
C 16.315773 97.0128 25.059415 93.391065 31.50524 86.94524 
C 37.951065 80.499415 41.5728 71.755773 41.5728 62.64 
C 41.5728 53.524227 37.951065 44.780585 31.50524 38.33476 
C 25.059415 31.888935 16.315773 28.2672 7.2 28.2672 
C -1.915773 28.2672 -10.659415 31.888935 -17.10524 38.33476 
C -23.551065 44.780585 -27.1728 53.524227 -27.1728 62.64 
C -27.1728 71.755773 -23.551065 80.499415 -17.10524 86.94524 
C -10.659415 93.391065 -1.915773 97.0128 7.2 97.0128 
L 7.2 97.0128 
z
" clip-path="url(#p63c13b7aa8)" style="fill: none; stroke: #000000; stroke-width: 2.2; stroke-linejoin: miter"/>
   </g>
   <g id="patch_12">
    <path d="M 7.2 41.5728 
C 16.315773 41.5728 25.059415 37.951065 31.50524 31.50524 
C 37.951065 25.059415 41.5728 16.315773 41.5728 7.2 
C 41.5728 -1.915773 37.951065 -10.659415 31.50524 -17.10524 
C 25.059415 -23.551065 16.315773 -27.1728 7.2 -27.1728 
C -1.915773 -27.1728 -10.659415 -23.551065 -17.10524 -17.10524 
C -23.551065 -10.659415 -27.1728 -1.915773 -27.1728 7.2 
C -27.1728 16.315773 -23.551065 25.059415 -17.10524 31.50524 
C -10.659415 37.951065 -1.915773 41.5728 7.2 41.5728 
L 7.2 41.5728 
z
" clip-path="url(#p63c13b7aa8)" style="fill: none; stroke: #000000; stroke-width: 2.2; stroke-linejoin: miter"/>
   </g>
   <g id="patch_13">
    <path d="M 62.64 595.9728 
C 71.755773 595.9728 80.499415 592.351065 86.94524 585.90524 
C 93.391065 579.459415 97.0128 570.715773 97.0128 561.6 
C 97.0128 552.484227 93.391065 543.740585 86.94524 537.29476 
C 80.499415 530.848935 71.755773 527.2272 62.64 527.2272 
C 53.524227 527.2272 44.780585 530.848935 38.33476 537.29476 
C 31.888935 543.740585 28.2672 552.484227 28.2672 561.6 
C 28.2672 570.715773 31.888935 579.459415 38.33476 585.90524 
C 44.780585 592.351065 53.524227 595.9728 62.64 595.9728 
" clip-path="url(#p63c13b7aa8)" style="fill: none; stroke: #000000; stroke-width: 2.2; stroke-linejoin: miter"/>
   </g>
   <g id="patch_14">
    <path d="M 62.64 540.5328 
C 71.755773 540.5328 80.499415 536.911065 86.94524 530.46524 
C 93.391065 524.019415 97.0128 515.275773 97.0128 506.16 
C 97.0128 497.044227 93.391065 488.300585 86.94524 481.85476 
C 80.499415 475.408935 71.755773 471.7872 62.64 471.7872 
C 53.524227 471.7872 44.780585 475.408935 38.33476 481.85476 
C 31.888935 488.300585 28.2672 497.044227 28.2672 506.16 
C 28.2672 515.275773 31.888935 524.019415 38.33476 530.46524 
C 44.780585 536.911065 53.524227 540.5328 62.64 540.5328 
L 62.64 540.5328 
z
" clip-path="url(#p63c13b7aa8)" style="fill: none; stroke: #000000; stroke-width: 2.2; stroke-linejoin: miter"/>
   </g>
   <g id="patch_15">
    <path d="M 62.64 485.0928 
C 71.755773 485.0928 80.499415 481.471065 86.94524 475.02524 
C 93.391065 468.579415 97.0128 459.835773 97.0128 450.72 
C 97.0128 441.604227 93.391065 432.860585 86.94524 426.41476 
C 80.499415 419.968935 71.755773 416.3472 62.64 416.3472 
C 53.524227 416.3472 44.780585 419.968935 38.33476 426.41476 
C 31.888935 432.860585 28.2672 441.604227 28.2672 450.72 
C 28.2672 459.835773 31.888935 468.579415 38.33476 475.02524 
C 44.780585 481.471065 53.524227 485.0928 62.64 485.0928 
L 62.64 485.0928 
z
" clip-path="url(#p63c13b7aa8)" style="fill: none; stroke: #000000; stroke-width: 2.2; stroke-linejoin: miter"/>
   </g>
   <g id="patch_16">
    <path d="M 62.64 429.6528 
C 71.755773 429.6528 80.499415 426.031065 86.94524 419.58524 
C 93.391065 413.139415 97.0128 404.395773 97.0128 395.28 
C 97.0128 386.164227 93.391065 377.420585 86.94524 370.97476 
C 80.499415 364.528935 71.755773 360.9072 62.64 360.9072 
C 53.524227 360.9072 44.780585 364.528935 38.33476 370.97476 
C 31.888935 377.420585 28.2672 386.164227 28.2672 395.28 
C 28.2672 404.395773 31.888935 413.139415 38.33476 419.58524 
C 44.780585 426.031065 53.524227 429.6528 62.64 429.6528 
L 62.64 429.6528 
z
" clip-path="url(#p63c13b7aa8)" style="fill: none; stroke: #000000; stroke-width: 2.2; stroke-linejoin: miter"/>
   </g>
   <g id="patch_17">
    <path d="M 62.64 374.2128 
C 71.755773 374.2128 80.499415 370.591065 86.94524 364.14524 
C 93.391065 357.699415 97.0128 348.955773 97.0128 339.84 
C 97.0128 330.724227 93.391065 321.980585 86.94524 315.53476 
C 80.499415 309.088935 71.755773 305.4672 62.64 305.4672 
C 53.524227 305.4672 44.780585 309.088935 38.33476 315.53476 
C 31.888935 321.980585 28.2672 330.724227 28.2672 339.84 
C 28.2672 348.955773 31.888935 357.699415 38.33476 364.14524 
C 44.780585 370.591065 53.524227 374.2128 62.64 374.2128 
L 62.64 374.2128 
z
" clip-path="url(#p63c13b7aa8)" style="fill: none; stroke: #000000; stroke-width: 2.2; stroke-linejoin: miter"/>
   </g>
   <g id="patch_18">
    <path d="M 62.64 318.7728 
C 71.755773 318.7728 80.499415 315.151065 86.94524 308.70524 
C 93.391065 302.259415 97.0128 293.515773 97.0128 284.4 
C 97.0128 275.284227 93.391065 266.540585 86.94524 260.09476 
C 80.499415 253.648935 71.755773 250.0272 62.64 250.0272 
C 53.524227 250.0272 44.780585 253.648935 38.33476 260.09476 
C 31.888935 266.540585 28.2672 275.284227 28.2672 284.4 
C 28.2672 293.515773 31.888935 302.259415 38.33476 308.70524 
C 44.780585 315.151065 53.524227 318.7728 62.64 318.7728 
L 62.64 318.7728 
z
" clip-path="url(#p63c13b7aa8)" style="fill: none; stroke: #000000; stroke-width: 2.2; stroke-linejoin: miter"/>
   </g>
   <g id="patch_19">
    <path d="M 62.64 263.3328 
C 71.755773 263.3328 80.499415 259.711065 86.94524 253.26524 
C 93.391065 246.819415 97.0128 238.075773 97.0128 228.96 
C 97.0128 219.844227 93.391065 211.100585 86.94524 204.65476 
C 80.499415 198.208935 71.755773 194.5872 62.64 194.5872 
C 53.524227 194.5872 44.780585 198.208935 38.33476 204.65476 
C 31.888935 211.100585 28.2672 219.844227 28.2672 228.96 
C 28.2672 238.075773 31.888935 246.819415 38.33476 253.26524 
C 44.780585 259.711065 53.524227 263.3328 62.64 263.3328 
L 62.64 263.3328 
z
" clip-path="url(#p63c13b7aa8)" style="fill: none; stroke: #000000; stroke-width: 2.2; stroke-linejoin: miter"/>
   </g>
   <g id="patch_20">
    <path d="M 62.64 207.8928 
C 71.755773 207.8928 80.499415 204.271065 86.94524 197.82524 
C 93.391065 191.379415 97.0128 182.635773 97.0128 173.52 
C 97.0128 164.404227 93.391065 155.660585 86.94524 149.21476 
C 80.499415 142.768935 71.755773 139.1472 62.64 139.1472 
C 53.524227 139.1472 44.780585 142.768935 38.33476 149.21476 
C 31.888935 155.660585 28.2672 164.404227 28.2672 173.52 
C 28.2672 182.635773 31.888935 191.379415 38.33476 197.82524 
C 44.780585 204.271065 53.524227 207.8928 62.64 207.8928 
L 62.64 207.8928 
z
" clip-path="url(#p63c13b7aa8)" style="fill: none; stroke: #000000; stroke-width: 2.2; stroke-linejoin: miter"/>
   </g>
   <g id="patch_21">
    <path d="M 62.64 152.4528 
C 71.755773 152.4528 80.499415 148.831065 86.94524 142.38524 
C 93.391065 135.939415 97.0128 127.195773 97.0128 118.08 
C 97.0128 108.964227 93.391065 100.220585 86.94524 93.77476 
C 80.499415 87.328935 71.755773 83.7072 62.64 83.7072 
C 53.524227 83.7072 44.780585 87.328935 38.33476 93.77476 
C 31.888935 100.220585 28.2672 108.964227 28.2672 118.08 
C 28.2672 127.195773 31.888935 135.939415 38.33476 142.38524 
C 44.780585 148.831065 53.524227 152.4528 62.64 152.4528 
L 62.64 152.4528 
z
" clip-path="url(#p63c13b7aa8)" style="fill: none; stroke: #000000; stroke-width: 2.2; stroke-linejoin: miter"/>
   </g>
   <g id="patch_22">
    <path d="M 62.64 97.0128 
C 71.755773 97.0128 80.499415 93.391065 86.94524 86.94524 
C 93.391065 80.499415 97.0128 71.755773 97.0128 62.64 
C 97.0128 53.524227 93.391065 44.780585 86.94524 38.33476 
C 80.499415 31.888935 71.755773 28.2672 62.64 28.2672 
C 53.524227 28.2672 44.780585 31.888935 38.33476 38.33476 
C 31.888935 44.780585 28.2672 53.524227 28.2672 62.64 
C 28.2672 71.755773 31.888935 80.499415 38.33476 86.94524 
C 44.780585 93.391065 53.524227 97.0128 62.64 97.0128 
L 62.64 97.0128 
z
" clip-path="url(#p63c13b7aa8)" style="fill: none; stroke: #000000; stroke-width: 2.2; stroke-linejoin: miter"/>
   </g>
   <g id="patch_23">
    <path d="M 62.64 41.5728 
C 71.755773 41.5728 80.499415 37.951065 86.94524 31.50524 
C 93.391065 25.059415 97.0128 16.315773 97.0128 7.2 
C 97.0128 -1.915773 93.391065 -10.659415 86.94524 -17.10524 
C 80.499415 -23.551065 71.755773 -27.1728 62.64 -27.1728 
C 53.524227 -27.1728 44.780585 -23.551065 38.33476 -17.10524 
C 31.888935 -10.659415 28.2672 -1.915773 28.2672 7.2 
C 28.2672 16.315773 31.888935 25.059415 38.33476 31.50524 
C 44.780585 37.951065 53.524227 41.5728 62.64 41.5728 
L 62.64 41.5728 
z
" clip-path="url(#p63c13b7aa8)" style="fill: none; stroke: #000000; stroke-width: 2.2; stroke-linejoin: miter"/>
   </g>
   <g id="patch_24">
    <path d="M 118.08 595.9728 
C 127.195773 595.9728 135.939415 592.351065 142.38524 585.90524 
C 148.831065 579.459415 152.4528 570.715773 152.4528 561.6 
C 152.4528 552.484227 148.831065 543.740585 142.38524 537.29476 
C 135.939415 530.848935 127.195773 527.2272 118.08 527.2272 
C 108.964227 527.2272 100.220585 530.848935 93.77476 537.29476 
C 87.328935 543.740585 83.7072 552.484227 83.7072 561.6 
C 83.7072 570.715773 87.328935 579.459415 93.77476 585.90524 
C 100.220585 592.351065 108.964227 595.9728 118.08 595.9728 
" clip-path="url(#p63c13b7aa8)" style="fill: none; stroke: #000000; stroke-width: 2.2; stroke-linejoin: miter"/>
   </g>
   <g id="patch_25">
    <path d="M 118.08 540.5328 
C 127.195773 540.5328 135.939415 536.911065 142.38524 530.46524 
C 148.831065 524.019415 152.4528 515.275773 152.4528 506.16 
C 152.4528 497.044227 148.831065 488.300585 142.38524 481.85476 
C 135.939415 475.408935 127.195773 471.7872 118.08 471.7872 
C 108.964227 471.7872 100.220585 475.408935 93.77476 481.85476 
C 87.328935 488.300585 83.7072 497.044227 83.7072 506.16 
C 83.7072 515.275773 87.328935 524.019415 93.77476 530.46524 
C 100.220585 536.911065 108.964227 540.5328 118.08 540.5328 
L 118.08 540.5328 
z
" clip-path="url(#p63c13b7aa8)" style="fill: none; stroke: #000000; stroke-width: 2.2; stroke-linejoin: miter"/>
   </g>
   <g id="patch_26">
    <path d="M 118.08 485.0928 
C 127.195773 485.0928 135.939415 481.471065 142.38524 475.02524 
C 148.831065 468.579415 152.4528 459.835773 152.4528 450.72 
C 152.4528 441.604227 148.831065 432.860585 142.38524 426.41476 
C 135.939415 419.968935 127.195773 416.3472 118.08 416.3472 
C 108.964227 416.3472 100.220585 419.968935 93.77476 426.41476 
C 87.328935 432.860585 83.7072 441.604227 83.7072 450.72 
C 83.7072 459.835773 87.328935 468.579415 93.77476 475.02524 
C 100.220585 481.471065 108.964227 485.0928 118.08 485.0928 
L 118.08 485.0928 
z
" clip-path="url(#p63c13b7aa8)" style="fill: none; stroke: #000000; stroke-width: 2.2; stroke-linejoin: miter"/>
   </g>
   <g id="patch_27">
    <path d="M 118.08 429.6528 
C 127.195773 429.6528 135.939415 426.031065 142.38524 419.58524 
C 148.831065 413.139415 152.4528 404.395773 152.4528 395.28 
C 152.4528 386.164227 148.831065 377.420585 142.38524 370.97476 
C 135.939415 364.528935 127.195773 360.9072 118.08 360.9072 
C 108.964227 360.9072 100.220585 364.528935 93.77476 370.97476 
C 87.328935 377.420585 83.7072 386.164227 83.7072 395.28 
C 83.7072 404.395773 87.328935 413.139415 93.77476 419.58524 
C 100.220585 426.031065 108.964227 429.6528 118.08 429.6528 
L 118.08 429.6528 
z
" clip-path="url(#p63c13b7aa8)" style="fill: none; stroke: #000000; stroke-width: 2.2; stroke-linejoin: miter"/>
   </g>
   <g id="patch_28">
    <path d="M 118.08 374.2128 
C 127.195773 374.2128 135.939415 370.591065 142.38524 364.14524 
C 148.831065 357.699415 152.4528 348.955773 152.4528 339.84 
C 152.4528 330.724227 148.831065 321.980585 142.38524 315.53476 
C 135.939415 309.088935 127.195773 305.4672 118.08 305.4672 
C 108.964227 305.4672 100.220585 309.088935 93.77476 315.53476 
C 87.328935 321.980585 83.7072 330.724227 83.7072 339.84 
C 83.7072 348.955773 87.328935 357.699415 93.77476 364.14524 
C 100.220585 370.591065 108.964227 374.2128 118.08 374.2128 
L 118.08 374.2128 
z
" clip-path="url(#p63c13b7aa8)" style="fill: none; stroke: #000000; stroke-width: 2.2; stroke-linejoin: miter"/>
   </g>
   <g id="patch_29">
    <path d="M 118.08 318.7728 
C 127.195773 318.7728 135.939415 315.151065 142.38524 308.70524 
C 148.831065 302.259415 152.4528 293.515773 152.4528 284.4 
C 152.4528 275.284227 148.831065 266.540585 142.38524 260.09476 
C 135.939415 253.648935 127.195773 250.0272 118.08 250.0272 
C 108.964227 250.0272 100.220585 253.648935 93.77476 260.09476 
C 87.328935 266.540585 83.7072 275.284227 83.7072 284.4 
C 83.7072 293.515773 87.328935 302.259415 93.77476 308.70524 
C 100.220585 315.151065 108.964227 318.7728 118.08 318.7728 
L 118.08 318.7728 
z
" clip-path="url(#p63c13b7aa8)" style="fill: none; stroke: #000000; stroke-width: 2.2; stroke-linejoin: miter"/>
   </g>
   <g id="patch_30">
    <path d="M 118.08 263.3328 
C 127.195773 263.3328 135.939415 259.711065 142.38524 253.26524 
C 148.831065 246.819415 152.4528 238.075773 152.4528 228.96 
C 152.4528 219.844227 148.831065 211.100585 142.38524 204.65476 
C 135.939415 198.208935 127.195773 194.5872 118.08 194.5872 
C 108.964227 194.5872 100.220585 198.208935 93.77476 204.65476 
C 87.328935 211.100585 83.7072 219.844227 83.7072 228.96 
C 83.7072 238.075773 87.328935 246.819415 93.77476 253.26524 
C 100.220585 259.711065 108.964227 263.3328 118.08 263.3328 
L 118.08 263.3328 
z
" clip-path="url(#p63c13b7aa8)" style="fill: none; stroke: #000000; stroke-width: 2.2; stroke-linejoin: miter"/>
   </g>
   <g id="patch_31">
    <path d="M 118.08 207.8928 
C 127.195773 207.8928 135.939415 204.271065 142.38524 197.82524 
C 148.831065 191.379415 152.4528 182.635773 152.4528 173.52 
C 152.4528 164.404227 148.831065 155.660585 142.38524 149.21476 
C 135.939415 142.768935 127.195773 139.1472 118.08 139.1472 
C 108.964227 139.1472 100.220585 142.768935 93.77476 149.21476 
C 87.328935 155.660585 83.7072 164.404227 83.7072 173.52 
C 83.7072 182.635773 87.328935 191.379415 93.77476 197.82524 
C 100.220585 204.271065 108.964227 207.8928 118.08 207.8928 
L 118.08 207.8928 
z
" clip-path="url(#p63c13b7aa8)" style="fill: none; stroke: #000000; stroke-width: 2.2; stroke-linejoin: miter"/>
   </g>
   <g id="patch_32">
    <path d="M 118.08 152.4528 
C 127.195773 152.4528 135.939415 148.831065 142.38524 142.38524 
C 148.831065 135.939415 152.4528 127.195773 152.4528 118.08 
C 152.4528 108.964227 148.831065 100.220585 142.38524 93.77476 
C 135.939415 87.328935 127.195773 83.7072 118.08 83.7072 
C 108.964227 83.7072 100.220585 87.328935 93.77476 93.77476 
C 87.328935 100.220585 83.7072 108.964227 83.7072 118.08 
C 83.7072 127.195773 87.328935 135.939415 93.77476 142.38524 
C 100.220585 148.831065 108.964227 152.4528 118.08 152.4528 
L 118.08 152.4528 
z
" clip-path="url(#p63c13b7aa8)" style="fill: none; stroke: #000000; stroke-width: 2.2; stroke-linejoin: miter"/>
   </g>
   <g id="patch_33">
    <path d="M 118.08 97.0128 
C 127.195773 97.0128 135.939415 93.391065 142.38524 86.94524 
C 148.831065 80.499415 152.4528 71.755773 152.4528 62.64 
C 152.4528 53.524227 148.831065 44.780585 142.38524 38.33476 
C 135.939415 31.888935 127.195773 28.2672 118.08 28.2672 
C 108.964227 28.2672 100.220585 31.888935 93.77476 38.33476 
C 87.328935 44.780585 83.7072 53.524227 83.7072 62.64 
C 83.7072 71.755773 87.328935 80.499415 93.77476 86.94524 
C 100.220585 93.391065 108.964227 97.0128 118.08 97.0128 
L 118.08 97.0128 
z
" clip-path="url(#p63c13b7aa8)" style="fill: none; stroke: #000000; stroke-width: 2.2; stroke-linejoin: miter"/>
   </g>
   <g id="patch_34">
    <path d="M 118.08 41.5728 
C 127.195773 41.5728 135.939415 37.951065 142.38524 31.50524 
C 148.831065 25.059415 152.4528 16.315773 152.4528 7.2 
C 152.4528 -1.915773 148.831065 -10.659415 142.38524 -17.10524 
C 135.939415 -23.551065 127.195773 -27.1728 118.08 -27.1728 
C 108.964227 -27.1728 100.220585 -23.551065 93.77476 -17.10524 
C 87.328935 -10.659415 83.7072 -1.915773 83.7072 7.2 
C 83.7072 16.315773 87.328935 25.059415 93.77476 31.50524 
C 100.220585 37.951065 108.964227 41.5728 118.08 41.5728 
L 118.08 41.5728 
z
" clip-path="url(#p63c13b7aa8)" style="fill: none; stroke: #000000; stroke-width: 2.2; stroke-linejoin: miter"/>
   </g>
   <g id="patch_35">
    <path d="M 173.52 595.9728 
C 182.635773 595.9728 191.379415 592.351065 197.82524 585.90524 
C 204.271065 579.459415 207.8928 570.715773 207.8928 561.6 
C 207.8928 552.484227 204.271065 543.740585 197.82524 537.29476 
C 191.379415 530.848935 182.635773 527.2272 173.52 527.2272 
C 164.404227 527.2272 155.660585 530.848935 149.21476 537.29476 
C 142.768935 543.740585 139.1472 552.484227 139.1472 561.6 
C 139.1472 570.715773 142.768935 579.459415 149.21476 585.90524 
C 155.660585 592.351065 164.404227 595.9728 173.52 595.9728 
" clip-path="url(#p63c13b7aa8)" style="fill: none; stroke: #000000; stroke-width: 2.2; stroke-linejoin: miter"/>
   </g>
   <g id="patch_36">
    <path d="M 173.52 540.5328 
C 182.635773 540.5328 191.379415 536.911065 197.82524 530.46524 
C 204.271065 524.019415 207.8928 515.275773 207.8928 506.16 
C 207.8928 497.044227 204.271065 488.300585 197.82524 481.85476 
C 191.379415 475.408935 182.635773 471.7872 173.52 471.7872 
C 164.404227 471.7872 155.660585 475.408935 149.21476 481.85476 
C 142.768935 488.300585 139.1472 497.044227 139.1472 506.16 
C 139.1472 515.275773 142.768935 524.019415 149.21476 530.46524 
C 155.660585 536.911065 164.404227 540.5328 173.52 540.5328 
L 173.52 540.5328 
z
" clip-path="url(#p63c13b7aa8)" style="fill: none; stroke: #000000; stroke-width: 2.2; stroke-linejoin: miter"/>
   </g>
   <g id="patch_37">
    <path d="M 173.52 485.0928 
C 182.635773 485.0928 191.379415 481.471065 197.82524 475.02524 
C 204.271065 468.579415 207.8928 459.835773 207.8928 450.72 
C 207.8928 441.604227 204.271065 432.860585 197.82524 426.41476 
C 191.379415 419.968935 182.635773 416.3472 173.52 416.3472 
C 164.404227 416.3472 155.660585 419.968935 149.21476 426.41476 
C 142.768935 432.860585 139.1472 441.604227 139.1472 450.72 
C 139.1472 459.835773 142.768935 468.579415 149.21476 475.02524 
C 155.660585 481.471065 164.404227 485.0928 173.52 485.0928 
L 173.52 485.0928 
z
" clip-path="url(#p63c13b7aa8)" style="fill: none; stroke: #000000; stroke-width: 2.2; stroke-linejoin: miter"/>
   </g>
   <g id="patch_38">
    <path d="M 173.52 429.6528 
C 182.635773 429.6528 191.379415 426.031065 197.82524 419.58524 
C 204.271065 413.139415 207.8928 404.395773 207.8928 395.28 
C 207.8928 386.164227 204.271065 377.420585 197.82524 370.97476 
C 191.379415 364.528935 182.635773 360.9072 173.52 360.9072 
C 164.404227 360.9072 155.660585 364.528935 149.21476 370.97476 
C 142.768935 377.420585 139.1472 386.164227 139.1472 395.28 
C 139.1472 404.395773 142.768935 413.139415 149.21476 419.58524 
C 155.660585 426.031065 164.404227 429.6528 173.52 429.6528 
L 173.52 429.6528 
z
" clip-path="url(#p63c13b7aa8)" style="fill: none; stroke: #000000; stroke-width: 2.2; stroke-linejoin: miter"/>
   </g>
   <g id="patch_39">
    <path d="M 173.52 374.2128 
C 182.635773 374.2128 191.379415 370.591065 197.82524 364.14524 
C 204.271065 357.699415 207.8928 348.955773 207.8928 339.84 
C 207.8928 330.724227 204.271065 321.980585 197.82524 315.53476 
C 191.379415 309.088935 182.635773 305.4672 173.52 305.4672 
C 164.404227 305.4672 155.660585 309.088935 149.21476 315.53476 
C 142.768935 321.980585 139.1472 330.724227 139.1472 339.84 
C 139.1472 348.955773 142.768935 357.699415 149.21476 364.14524 
C 155.660585 370.591065 164.404227 374.2128 173.52 374.2128 
L 173.52 374.2128 
z
" clip-path="url(#p63c13b7aa8)" style="fill: none; stroke: #000000; stroke-width: 2.2; stroke-linejoin: miter"/>
   </g>
   <g id="patch_40">
    <path d="M 173.52 318.7728 
C 182.635773 318.7728 191.379415 315.151065 197.82524 308.70524 
C 204.271065 302.259415 207.8928 293.515773 207.8928 284.4 
C 207.8928 275.284227 204.271065 266.540585 197.82524 260.09476 
C 191.379415 253.648935 182.635773 250.0272 173.52 250.0272 
C 164.404227 250.0272 155.660585 253.648935 149.21476 260.09476 
C 142.768935 266.540585 139.1472 275.284227 139.1472 284.4 
C 139.1472 293.515773 142.768935 302.259415 149.21476 308.70524 
C 155.660585 315.151065 164.404227 318.7728 173.52 318.7728 
L 173.52 318.7728 
z
" clip-path="url(#p63c13b7aa8)" style="fill: none; stroke: #000000; stroke-width: 2.2; stroke-linejoin: miter"/>
   </g>
   <g id="patch_41">
    <path d="M 173.52 263.3328 
C 182.635773 263.3328 191.379415 259.711065 197.82524 253.26524 
C 204.271065 246.819415 207.8928 238.075773 207.8928 228.96 
C 207.8928 219.844227 204.271065 211.100585 197.82524 204.65476 
C 191.379415 198.208935 182.635773 194.5872 173.52 194.5872 
C 164.404227 194.5872 155.660585 198.208935 149.21476 204.65476 
C 142.768935 211.100585 139.1472 219.844227 139.1472 228.96 
C 139.1472 238.075773 142.768935 246.819415 149.21476 253.26524 
C 155.660585 259.711065 164.404227 263.3328 173.52 263.3328 
L 173.52 263.3328 
z
" clip-path="url(#p63c13b7aa8)" style="fill: none; stroke: #000000; stroke-width: 2.2; stroke-linejoin: miter"/>
   </g>
   <g id="patch_42">
    <path d="M 173.52 207.8928 
C 182.635773 207.8928 191.379415 204.271065 197.82524 197.82524 
C 204.271065 191.379415 207.8928 182.635773 207.8928 173.52 
C 207.8928 164.404227 204.271065 155.660585 197.82524 149.21476 
C 191.379415 142.768935 182.635773 139.1472 173.52 139.1472 
C 164.404227 139.1472 155.660585 142.768935 149.21476 149.21476 
C 142.768935 155.660585 139.1472 164.404227 139.1472 173.52 
C 139.1472 182.635773 142.768935 191.379415 149.21476 197.82524 
C 155.660585 204.271065 164.404227 207.8928 173.52 207.8928 
L 173.52 207.8928 
z
" clip-path="url(#p63c13b7aa8)" style="fill: none; stroke: #000000; stroke-width: 2.2; stroke-linejoin: miter"/>
   </g>
   <g id="patch_43">
    <path d="M 173.52 152.4528 
C 182.635773 152.4528 191.379415 148.831065 197.82524 142.38524 
C 204.271065 135.939415 207.8928 127.195773 207.8928 118.08 
C 207.8928 108.964227 204.271065 100.220585 197.82524 93.77476 
C 191.379415 87.328935 182.635773 83.7072 173.52 83.7072 
C 164.404227 83.7072 155.660585 87.328935 149.21476 93.77476 
C 142.768935 100.220585 139.1472 108.964227 139.1472 118.08 
C 139.1472 127.195773 142.768935 135.939415 149.21476 142.38524 
C 155.660585 148.831065 164.404227 152.4528 173.52 152.4528 
L 173.52 152.4528 
z
" clip-path="url(#p63c13b7aa8)" style="fill: none; stroke: #000000; stroke-width: 2.2; stroke-linejoin: miter"/>
   </g>
   <g id="patch_44">
    <path d="M 173.52 97.0128 
C 182.635773 97.0128 191.379415 93.391065 197.82524 86.94524 
C 204.271065 80.499415 207.8928 71.755773 207.8928 62.64 
C 207.8928 53.524227 204.271065 44.780585 197.82524 38.33476 
C 191.379415 31.888935 182.635773 28.2672 173.52 28.2672 
C 164.404227 28.2672 155.660585 31.888935 149.21476 38.33476 
C 142.768935 44.780585 139.1472 53.524227 139.1472 62.64 
C 139.1472 71.755773 142.768935 80.499415 149.21476 86.94524 
C 155.660585 93.391065 164.404227 97.0128 173.52 97.0128 
L 173.52 97.0128 
z
" clip-path="url(#p63c13b7aa8)" style="fill: none; stroke: #000000; stroke-width: 2.2; stroke-linejoin: miter"/>
   </g>
   <g id="patch_45">
    <path d="M 173.52 41.5728 
C 182.635773 41.5728 191.379415 37.951065 197.82524 31.50524 
C 204.271065 25.059415 207.8928 16.315773 207.8928 7.2 
C 207.8928 -1.915773 204.271065 -10.659415 197.82524 -17.10524 
C 191.379415 -23.551065 182.635773 -27.1728 173.52 -27.1728 
C 164.404227 -27.1728 155.660585 -23.551065 149.21476 -17.10524 
C 142.768935 -10.659415 139.1472 -1.915773 139.1472 7.2 
C 139.1472 16.315773 142.768935 25.059415 149.21476 31.50524 
C 155.660585 37.951065 164.404227 41.5728 173.52 41.5728 
L 173.52 41.5728 
z
" clip-path="url(#p63c13b7aa8)" style="fill: none; stroke: #000000; stroke-width: 2.2; stroke-linejoin: miter"/>
   </g>
   <g id="patch_46">
    <path d="M 228.96 595.9728 
C 238.075773 595.9728 246.819415 592.351065 253.26524 585.90524 
C 259.711065 579.459415 263.3328 570.715773 263.3328 561.6 
C 263.3328 552.484227 259.711065 543.740585 253.26524 537.29476 
C 246.819415 530.848935 238.075773 527.2272 228.96 527.2272 
C 219.844227 527.2272 211.100585 530.848935 204.65476 537.29476 
C 198.208935 543.740585 194.5872 552.484227 194.5872 561.6 
C 194.5872 570.715773 198.208935 579.459415 204.65476 585.90524 
C 211.100585 592.351065 219.844227 595.9728 228.96 595.9728 
" clip-path="url(#p63c13b7aa8)" style="fill: none; stroke: #000000; stroke-width: 2.2; stroke-linejoin: miter"/>
   </g>
   <g id="patch_47">
    <path d="M 228.96 540.5328 
C 238.075773 540.5328 246.819415 536.911065 253.26524 530.46524 
C 259.711065 524.019415 263.3328 515.275773 263.3328 506.16 
C 263.3328 497.044227 259.711065 488.300585 253.26524 481.85476 
C 246.819415 475.408935 238.075773 471.7872 228.96 471.7872 
C 219.844227 471.7872 211.100585 475.408935 204.65476 481.85476 
C 198.208935 488.300585 194.5872 497.044227 194.5872 506.16 
C 194.5872 515.275773 198.208935 524.019415 204.65476 530.46524 
C 211.100585 536.911065 219.844227 540.5328 228.96 540.5328 
L 228.96 540.5328 
z
" clip-path="url(#p63c13b7aa8)" style="fill: none; stroke: #000000; stroke-width: 2.2; stroke-linejoin: miter"/>
   </g>
   <g id="patch_48">
    <path d="M 228.96 485.0928 
C 238.075773 485.0928 246.819415 481.471065 253.26524 475.02524 
C 259.711065 468.579415 263.3328 459.835773 263.3328 450.72 
C 263.3328 441.604227 259.711065 432.860585 253.26524 426.41476 
C 246.819415 419.968935 238.075773 416.3472 228.96 416.3472 
C 219.844227 416.3472 211.100585 419.968935 204.65476 426.41476 
C 198.208935 432.860585 194.5872 441.604227 194.5872 450.72 
C 194.5872 459.835773 198.208935 468.579415 204.65476 475.02524 
C 211.100585 481.471065 219.844227 485.0928 228.96 485.0928 
L 228.96 485.0928 
z
" clip-path="url(#p63c13b7aa8)" style="fill: none; stroke: #000000; stroke-width: 2.2; stroke-linejoin: miter"/>
   </g>
   <g id="patch_49">
    <path d="M 228.96 429.6528 
C 238.075773 429.6528 246.819415 426.031065 253.26524 419.58524 
C 259.711065 413.139415 263.3328 404.395773 263.3328 395.28 
C 263.3328 386.164227 259.711065 377.420585 253.26524 370.97476 
C 246.819415 364.528935 238.075773 360.9072 228.96 360.9072 
C 219.844227 360.9072 211.100585 364.528935 204.65476 370.97476 
C 198.208935 377.420585 194.5872 386.164227 194.5872 395.28 
C 194.5872 404.395773 198.208935 413.139415 204.65476 419.58524 
C 211.100585 426.031065 219.844227 429.6528 228.96 429.6528 
L 228.96 429.6528 
z
" clip-path="url(#p63c13b7aa8)" style="fill: none; stroke: #000000; stroke-width: 2.2; stroke-linejoin: miter"/>
   </g>
   <g id="patch_50">
    <path d="M 228.96 374.2128 
C 238.075773 374.2128 246.819415 370.591065 253.26524 364.14524 
C 259.711065 357.699415 263.3328 348.955773 263.3328 339.84 
C 263.3328 330.724227 259.711065 321.980585 253.26524 315.53476 
C 246.819415 309.088935 238.075773 305.4672 228.96 305.4672 
C 219.844227 305.4672 211.100585 309.088935 204.65476 315.53476 
C 198.208935 321.980585 194.5872 330.724227 194.5872 339.84 
C 194.5872 348.955773 198.208935 357.699415 204.65476 364.14524 
C 211.100585 370.591065 219.844227 374.2128 228.96 374.2128 
L 228.96 374.2128 
z
" clip-path="url(#p63c13b7aa8)" style="fill: none; stroke: #000000; stroke-width: 2.2; stroke-linejoin: miter"/>
   </g>
   <g id="patch_51">
    <path d="M 228.96 318.7728 
C 238.075773 318.7728 246.819415 315.151065 253.26524 308.70524 
C 259.711065 302.259415 263.3328 293.515773 263.3328 284.4 
C 263.3328 275.284227 259.711065 266.540585 253.26524 260.09476 
C 246.819415 253.648935 238.075773 250.0272 228.96 250.0272 
C 219.844227 250.0272 211.100585 253.648935 204.65476 260.09476 
C 198.208935 266.540585 194.5872 275.284227 194.5872 284.4 
C 194.5872 293.515773 198.208935 302.259415 204.65476 308.70524 
C 211.100585 315.151065 219.844227 318.7728 228.96 318.7728 
L 228.96 318.7728 
z
" clip-path="url(#p63c13b7aa8)" style="fill: none; stroke: #000000; stroke-width: 2.2; stroke-linejoin: miter"/>
   </g>
   <g id="patch_52">
    <path d="M 228.96 263.3328 
C 238.075773 263.3328 246.819415 259.711065 253.26524 253.26524 
C 259.711065 246.819415 263.3328 238.075773 263.3328 228.96 
C 263.3328 219.844227 259.711065 211.100585 253.26524 204.65476 
C 246.819415 198.208935 238.075773 194.5872 228.96 194.5872 
C 219.844227 194.5872 211.100585 198.208935 204.65476 204.65476 
C 198.208935 211.100585 194.5872 219.844227 194.5872 228.96 
C 194.5872 238.075773 198.208935 246.819415 204.65476 253.26524 
C 211.100585 259.711065 219.844227 263.3328 228.96 263.3328 
L 228.96 263.3328 
z
" clip-path="url(#p63c13b7aa8)" style="fill: none; stroke: #000000; stroke-width: 2.2; stroke-linejoin: miter"/>
   </g>
   <g id="patch_53">
    <path d="M 228.96 207.8928 
C 238.075773 207.8928 246.819415 204.271065 253.26524 197.82524 
C 259.711065 191.379415 263.3328 182.635773 263.3328 173.52 
C 263.3328 164.404227 259.711065 155.660585 253.26524 149.21476 
C 246.819415 142.768935 238.075773 139.1472 228.96 139.1472 
C 219.844227 139.1472 211.100585 142.768935 204.65476 149.21476 
C 198.208935 155.660585 194.5872 164.404227 194.5872 173.52 
C 194.5872 182.635773 198.208935 191.379415 204.65476 197.82524 
C 211.100585 204.271065 219.844227 207.8928 228.96 207.8928 
L 228.96 207.8928 
z
" clip-path="url(#p63c13b7aa8)" style="fill: none; stroke: #000000; stroke-width: 2.2; stroke-linejoin: miter"/>
   </g>
   <g id="patch_54">
    <path d="M 228.96 152.4528 
C 238.075773 152.4528 246.819415 148.831065 253.26524 142.38524 
C 259.711065 135.939415 263.3328 127.195773 263.3328 118.08 
C 263.3328 108.964227 259.711065 100.220585 253.26524 93.77476 
C 246.819415 87.328935 238.075773 83.7072 228.96 83.7072 
C 219.844227 83.7072 211.100585 87.328935 204.65476 93.77476 
C 198.208935 100.220585 194.5872 108.964227 194.5872 118.08 
C 194.5872 127.195773 198.208935 135.939415 204.65476 142.38524 
C 211.100585 148.831065 219.844227 152.4528 228.96 152.4528 
L 228.96 152.4528 
z
" clip-path="url(#p63c13b7aa8)" style="fill: none; stroke: #000000; stroke-width: 2.2; stroke-linejoin: miter"/>
   </g>
   <g id="patch_55">
    <path d="M 228.96 97.0128 
C 238.075773 97.0128 246.819415 93.391065 253.26524 86.94524 
C 259.711065 80.499415 263.3328 71.755773 263.3328 62.64 
C 263.3328 53.524227 259.711065 44.780585 253.26524 38.33476 
C 246.819415 31.888935 238.075773 28.2672 228.96 28.2672 
C 219.844227 28.2672 211.100585 31.888935 204.65476 38.33476 
C 198.208935 44.780585 194.5872 53.524227 194.5872 62.64 
C 194.5872 71.755773 198.208935 80.499415 204.65476 86.94524 
C 211.100585 93.391065 219.844227 97.0128 228.96 97.0128 
L 228.96 97.0128 
z
" clip-path="url(#p63c13b7aa8)" style="fill: none; stroke: #000000; stroke-width: 2.2; stroke-linejoin: miter"/>
   </g>
   <g id="patch_56">
    <path d="M 228.96 41.5728 
C 238.075773 41.5728 246.819415 37.951065 253.26524 31.50524 
C 259.711065 25.059415 263.3328 16.315773 263.3328 7.2 
C 263.3328 -1.915773 259.711065 -10.659415 253.26524 -17.10524 
C 246.819415 -23.551065 238.075773 -27.1728 228.96 -27.1728 
C 219.844227 -27.1728 211.100585 -23.551065 204.65476 -17.10524 
C 198.208935 -10.659415 194.5872 -1.915773 194.5872 7.2 
C 194.5872 16.315773 198.208935 25.059415 204.65476 31.50524 
C 211.100585 37.951065 219.844227 41.5728 228.96 41.5728 
L 228.96 41.5728 
z
" clip-path="url(#p63c13b7aa8)" style="fill: none; stroke: #000000; stroke-width: 2.2; stroke-linejoin: miter"/>
   </g>
   <g id="patch_57">
    <path d="M 284.4 595.9728 
C 293.515773 595.9728 302.259415 592.351065 308.70524 585.90524 
C 315.151065 579.459415 318.7728 570.715773 318.7728 561.6 
C 318.7728 552.484227 315.151065 543.740585 308.70524 537.29476 
C 302.259415 530.848935 293.515773 527.2272 284.4 527.2272 
C 275.284227 527.2272 266.540585 530.848935 260.09476 537.29476 
C 253.648935 543.740585 250.0272 552.484227 250.0272 561.6 
C 250.0272 570.715773 253.648935 579.459415 260.09476 585.90524 
C 266.540585 592.351065 275.284227 595.9728 284.4 595.9728 
" clip-path="url(#p63c13b7aa8)" style="fill: none; stroke: #000000; stroke-width: 2.2; stroke-linejoin: miter"/>
   </g>
   <g id="patch_58">
    <path d="M 284.4 540.5328 
C 293.515773 540.5328 302.259415 536.911065 308.70524 530.46524 
C 315.151065 524.019415 318.7728 515.275773 318.7728 506.16 
C 318.7728 497.044227 315.151065 488.300585 308.70524 481.85476 
C 302.259415 475.408935 293.515773 471.7872 284.4 471.7872 
C 275.284227 471.7872 266.540585 475.408935 260.09476 481.85476 
C 253.648935 488.300585 250.0272 497.044227 250.0272 506.16 
C 250.0272 515.275773 253.648935 524.019415 260.09476 530.46524 
C 266.540585 536.911065 275.284227 540.5328 284.4 540.5328 
L 284.4 540.5328 
z
" clip-path="url(#p63c13b7aa8)" style="fill: none; stroke: #000000; stroke-width: 2.2; stroke-linejoin: miter"/>
   </g>
   <g id="patch_59">
    <path d="M 284.4 485.0928 
C 293.515773 485.0928 302.259415 481.471065 308.70524 475.02524 
C 315.151065 468.579415 318.7728 459.835773 318.7728 450.72 
C 318.7728 441.604227 315.151065 432.860585 308.70524 426.41476 
C 302.259415 419.968935 293.515773 416.3472 284.4 416.3472 
C 275.284227 416.3472 266.540585 419.968935 260.09476 426.41476 
C 253.648935 432.860585 250.0272 441.604227 250.0272 450.72 
C 250.0272 459.835773 253.648935 468.579415 260.09476 475.02524 
C 266.540585 481.471065 275.284227 485.0928 284.4 485.0928 
L 284.4 485.0928 
z
" clip-path="url(#p63c13b7aa8)" style="fill: none; stroke: #000000; stroke-width: 2.2; stroke-linejoin: miter"/>
   </g>
   <g id="patch_60">
    <path d="M 284.4 429.6528 
C 293.515773 429.6528 302.259415 426.031065 308.70524 419.58524 
C 315.151065 413.139415 318.7728 404.395773 318.7728 395.28 
C 318.7728 386.164227 315.151065 377.420585 308.70524 370.97476 
C 302.259415 364.528935 293.515773 360.9072 284.4 360.9072 
C 275.284227 360.9072 266.540585 364.528935 260.09476 370.97476 
C 253.648935 377.420585 250.0272 386.164227 250.0272 395.28 
C 250.0272 404.395773 253.648935 413.139415 260.09476 419.58524 
C 266.540585 426.031065 275.284227 429.6528 284.4 429.6528 
L 284.4 429.6528 
z
" clip-path="url(#p63c13b7aa8)" style="fill: none; stroke: #000000; stroke-width: 2.2; stroke-linejoin: miter"/>
   </g>
   <g id="patch_61">
    <path d="M 284.4 374.2128 
C 293.515773 374.2128 302.259415 370.591065 308.70524 364.14524 
C 315.151065 357.699415 318.7728 348.955773 318.7728 339.84 
C 318.7728 330.724227 315.151065 321.980585 308.70524 315.53476 
C 302.259415 309.088935 293.515773 305.4672 284.4 305.4672 
C 275.284227 305.4672 266.540585 309.088935 260.09476 315.53476 
C 253.648935 321.980585 250.0272 330.724227 250.0272 339.84 
C 250.0272 348.955773 253.648935 357.699415 260.09476 364.14524 
C 266.540585 370.591065 275.284227 374.2128 284.4 374.2128 
L 284.4 374.2128 
z
" clip-path="url(#p63c13b7aa8)" style="fill: none; stroke: #000000; stroke-width: 2.2; stroke-linejoin: miter"/>
   </g>
   <g id="patch_62">
    <path d="M 284.4 318.7728 
C 293.515773 318.7728 302.259415 315.151065 308.70524 308.70524 
C 315.151065 302.259415 318.7728 293.515773 318.7728 284.4 
C 318.7728 275.284227 315.151065 266.540585 308.70524 260.09476 
C 302.259415 253.648935 293.515773 250.0272 284.4 250.0272 
C 275.284227 250.0272 266.540585 253.648935 260.09476 260.09476 
C 253.648935 266.540585 250.0272 275.284227 250.0272 284.4 
C 250.0272 293.515773 253.648935 302.259415 260.09476 308.70524 
C 266.540585 315.151065 275.284227 318.7728 284.4 318.7728 
L 284.4 318.7728 
z
" clip-path="url(#p63c13b7aa8)" style="fill: none; stroke: #000000; stroke-width: 2.2; stroke-linejoin: miter"/>
   </g>
   <g id="patch_63">
    <path d="M 284.4 263.3328 
C 293.515773 263.3328 302.259415 259.711065 308.70524 253.26524 
C 315.151065 246.819415 318.7728 238.075773 318.7728 228.96 
C 318.7728 219.844227 315.151065 211.100585 308.70524 204.65476 
C 302.259415 198.208935 293.515773 194.5872 284.4 194.5872 
C 275.284227 194.5872 266.540585 198.208935 260.09476 204.65476 
C 253.648935 211.100585 250.0272 219.844227 250.0272 228.96 
C 250.0272 238.075773 253.648935 246.819415 260.09476 253.26524 
C 266.540585 259.711065 275.284227 263.3328 284.4 263.3328 
L 284.4 263.3328 
z
" clip-path="url(#p63c13b7aa8)" style="fill: none; stroke: #000000; stroke-width: 2.2; stroke-linejoin: miter"/>
   </g>
   <g id="patch_64">
    <path d="M 284.4 207.8928 
C 293.515773 207.8928 302.259415 204.271065 308.70524 197.82524 
C 315.151065 191.379415 318.7728 182.635773 318.7728 173.52 
C 318.7728 164.404227 315.151065 155.660585 308.70524 149.21476 
C 302.259415 142.768935 293.515773 139.1472 284.4 139.1472 
C 275.284227 139.1472 266.540585 142.768935 260.09476 149.21476 
C 253.648935 155.660585 250.0272 164.404227 250.0272 173.52 
C 250.0272 182.635773 253.648935 191.379415 260.09476 197.82524 
C 266.540585 204.271065 275.284227 207.8928 284.4 207.8928 
L 284.4 207.8928 
z
" clip-path="url(#p63c13b7aa8)" style="fill: none; stroke: #000000; stroke-width: 2.2; stroke-linejoin: miter"/>
   </g>
   <g id="patch_65">
    <path d="M 284.4 152.4528 
C 293.515773 152.4528 302.259415 148.831065 308.70524 142.38524 
C 315.151065 135.939415 318.7728 127.195773 318.7728 118.08 
C 318.7728 108.964227 315.151065 100.220585 308.70524 93.77476 
C 302.259415 87.328935 293.515773 83.7072 284.4 83.7072 
C 275.284227 83.7072 266.540585 87.328935 260.09476 93.77476 
C 253.648935 100.220585 250.0272 108.964227 250.0272 118.08 
C 250.0272 127.195773 253.648935 135.939415 260.09476 142.38524 
C 266.540585 148.831065 275.284227 152.4528 284.4 152.4528 
L 284.4 152.4528 
z
" clip-path="url(#p63c13b7aa8)" style="fill: none; stroke: #000000; stroke-width: 2.2; stroke-linejoin: miter"/>
   </g>
   <g id="patch_66">
    <path d="M 284.4 97.0128 
C 293.515773 97.0128 302.259415 93.391065 308.70524 86.94524 
C 315.151065 80.499415 318.7728 71.755773 318.7728 62.64 
C 318.7728 53.524227 315.151065 44.780585 308.70524 38.33476 
C 302.259415 31.888935 293.515773 28.2672 284.4 28.2672 
C 275.284227 28.2672 266.540585 31.888935 260.09476 38.33476 
C 253.648935 44.780585 250.0272 53.524227 250.0272 62.64 
C 250.0272 71.755773 253.648935 80.499415 260.09476 86.94524 
C 266.540585 93.391065 275.284227 97.0128 284.4 97.0128 
L 284.4 97.0128 
z
" clip-path="url(#p63c13b7aa8)" style="fill: none; stroke: #000000; stroke-width: 2.2; stroke-linejoin: miter"/>
   </g>
   <g id="patch_67">
    <path d="M 284.4 41.5728 
C 293.515773 41.5728 302.259415 37.951065 308.70524 31.50524 
C 315.151065 25.059415 318.7728 16.315773 318.7728 7.2 
C 318.7728 -1.915773 315.151065 -10.659415 308.70524 -17.10524 
C 302.259415 -23.551065 293.515773 -27.1728 284.4 -27.1728 
C 275.284227 -27.1728 266.540585 -23.551065 260.09476 -17.10524 
C 253.648935 -10.659415 250.0272 -1.915773 250.0272 7.2 
C 250.0272 16.315773 253.648935 25.059415 260.09476 31.50524 
C 266.540585 37.951065 275.284227 41.5728 284.4 41.5728 
L 284.4 41.5728 
z
" clip-path="url(#p63c13b7aa8)" style="fill: none; stroke: #000000; stroke-width: 2.2; stroke-linejoin: miter"/>
   </g>
   <g id="patch_68">
    <path d="M 339.84 595.9728 
C 348.955773 595.9728 357.699415 592.351065 364.14524 585.90524 
C 370.591065 579.459415 374.2128 570.715773 374.2128 561.6 
C 374.2128 552.484227 370.591065 543.740585 364.14524 537.29476 
C 357.699415 530.848935 348.955773 527.2272 339.84 527.2272 
C 330.724227 527.2272 321.980585 530.848935 315.53476 537.29476 
C 309.088935 543.740585 305.4672 552.484227 305.4672 561.6 
C 305.4672 570.715773 309.088935 579.459415 315.53476 585.90524 
C 321.980585 592.351065 330.724227 595.9728 339.84 595.9728 
" clip-path="url(#p63c13b7aa8)" style="fill: none; stroke: #000000; stroke-width: 2.2; stroke-linejoin: miter"/>
   </g>
   <g id="patch_69">
    <path d="M 339.84 540.5328 
C 348.955773 540.5328 357.699415 536.911065 364.14524 530.46524 
C 370.591065 524.019415 374.2128 515.275773 374.2128 506.16 
C 374.2128 497.044227 370.591065 488.300585 364.14524 481.85476 
C 357.699415 475.408935 348.955773 471.7872 339.84 471.7872 
C 330.724227 471.7872 321.980585 475.408935 315.53476 481.85476 
C 309.088935 488.300585 305.4672 497.044227 305.4672 506.16 
C 305.4672 515.275773 309.088935 524.019415 315.53476 530.46524 
C 321.980585 536.911065 330.724227 540.5328 339.84 540.5328 
L 339.84 540.5328 
z
" clip-path="url(#p63c13b7aa8)" style="fill: none; stroke: #000000; stroke-width: 2.2; stroke-linejoin: miter"/>
   </g>
   <g id="patch_70">
    <path d="M 339.84 485.0928 
C 348.955773 485.0928 357.699415 481.471065 364.14524 475.02524 
C 370.591065 468.579415 374.2128 459.835773 374.2128 450.72 
C 374.2128 441.604227 370.591065 432.860585 364.14524 426.41476 
C 357.699415 419.968935 348.955773 416.3472 339.84 416.3472 
C 330.724227 416.3472 321.980585 419.968935 315.53476 426.41476 
C 309.088935 432.860585 305.4672 441.604227 305.4672 450.72 
C 305.4672 459.835773 309.088935 468.579415 315.53476 475.02524 
C 321.980585 481.471065 330.724227 485.0928 339.84 485.0928 
L 339.84 485.0928 
z
" clip-path="url(#p63c13b7aa8)" style="fill: none; stroke: #000000; stroke-width: 2.2; stroke-linejoin: miter"/>
   </g>
   <g id="patch_71">
    <path d="M 339.84 429.6528 
C 348.955773 429.6528 357.699415 426.031065 364.14524 419.58524 
C 370.591065 413.139415 374.2128 404.395773 374.2128 395.28 
C 374.2128 386.164227 370.591065 377.420585 364.14524 370.97476 
C 357.699415 364.528935 348.955773 360.9072 339.84 360.9072 
C 330.724227 360.9072 321.980585 364.528935 315.53476 370.97476 
C 309.088935 377.420585 305.4672 386.164227 305.4672 395.28 
C 305.4672 404.395773 309.088935 413.139415 315.53476 419.58524 
C 321.980585 426.031065 330.724227 429.6528 339.84 429.6528 
L 339.84 429.6528 
z
" clip-path="url(#p63c13b7aa8)" style="fill: none; stroke: #000000; stroke-width: 2.2; stroke-linejoin: miter"/>
   </g>
   <g id="patch_72">
    <path d="M 339.84 374.2128 
C 348.955773 374.2128 357.699415 370.591065 364.14524 364.14524 
C 370.591065 357.699415 374.2128 348.955773 374.2128 339.84 
C 374.2128 330.724227 370.591065 321.980585 364.14524 315.53476 
C 357.699415 309.088935 348.955773 305.4672 339.84 305.4672 
C 330.724227 305.4672 321.980585 309.088935 315.53476 315.53476 
C 309.088935 321.980585 305.4672 330.724227 305.4672 339.84 
C 305.4672 348.955773 309.088935 357.699415 315.53476 364.14524 
C 321.980585 370.591065 330.724227 374.2128 339.84 374.2128 
L 339.84 374.2128 
z
" clip-path="url(#p63c13b7aa8)" style="fill: none; stroke: #000000; stroke-width: 2.2; stroke-linejoin: miter"/>
   </g>
   <g id="patch_73">
    <path d="M 339.84 318.7728 
C 348.955773 318.7728 357.699415 315.151065 364.14524 308.70524 
C 370.591065 302.259415 374.2128 293.515773 374.2128 284.4 
C 374.2128 275.284227 370.591065 266.540585 364.14524 260.09476 
C 357.699415 253.648935 348.955773 250.0272 339.84 250.0272 
C 330.724227 250.0272 321.980585 253.648935 315.53476 260.09476 
C 309.088935 266.540585 305.4672 275.284227 305.4672 284.4 
C 305.4672 293.515773 309.088935 302.259415 315.53476 308.70524 
C 321.980585 315.151065 330.724227 318.7728 339.84 318.7728 
L 339.84 318.7728 
z
" clip-path="url(#p63c13b7aa8)" style="fill: none; stroke: #000000; stroke-width: 2.2; stroke-linejoin: miter"/>
   </g>
   <g id="patch_74">
    <path d="M 339.84 263.3328 
C 348.955773 263.3328 357.699415 259.711065 364.14524 253.26524 
C 370.591065 246.819415 374.2128 238.075773 374.2128 228.96 
C 374.2128 219.844227 370.591065 211.100585 364.14524 204.65476 
C 357.699415 198.208935 348.955773 194.5872 339.84 194.5872 
C 330.724227 194.5872 321.980585 198.208935 315.53476 204.65476 
C 309.088935 211.100585 305.4672 219.844227 305.4672 228.96 
C 305.4672 238.075773 309.088935 246.819415 315.53476 253.26524 
C 321.980585 259.711065 330.724227 263.3328 339.84 263.3328 
L 339.84 263.3328 
z
" clip-path="url(#p63c13b7aa8)" style="fill: none; stroke: #000000; stroke-width: 2.2; stroke-linejoin: miter"/>
   </g>
   <g id="patch_75">
    <path d="M 339.84 207.8928 
C 348.955773 207.8928 357.699415 204.271065 364.14524 197.82524 
C 370.591065 191.379415 374.2128 182.635773 374.2128 173.52 
C 374.2128 164.404227 370.591065 155.660585 364.14524 149.21476 
C 357.699415 142.768935 348.955773 139.1472 339.84 139.1472 
C 330.724227 139.1472 321.980585 142.768935 315.53476 149.21476 
C 309.088935 155.660585 305.4672 164.404227 305.4672 173.52 
C 305.4672 182.635773 309.088935 191.379415 315.53476 197.82524 
C 321.980585 204.271065 330.724227 207.8928 339.84 207.8928 
L 339.84 207.8928 
z
" clip-path="url(#p63c13b7aa8)" style="fill: none; stroke: #000000; stroke-width: 2.2; stroke-linejoin: miter"/>
   </g>
   <g id="patch_76">
    <path d="M 339.84 152.4528 
C 348.955773 152.4528 357.699415 148.831065 364.14524 142.38524 
C 370.591065 135.939415 374.2128 127.195773 374.2128 118.08 
C 374.2128 108.964227 370.591065 100.220585 364.14524 93.77476 
C 357.699415 87.328935 348.955773 83.7072 339.84 83.7072 
C 330.724227 83.7072 321.980585 87.328935 315.53476 93.77476 
C 309.088935 100.220585 305.4672 108.964227 305.4672 118.08 
C 305.4672 127.195773 309.088935 135.939415 315.53476 142.38524 
C 321.980585 148.831065 330.724227 152.4528 339.84 152.4528 
L 339.84 152.4528 
z
" clip-path="url(#p63c13b7aa8)" style="fill: none; stroke: #000000; stroke-width: 2.2; stroke-linejoin: miter"/>
   </g>
   <g id="patch_77">
    <path d="M 339.84 97.0128 
C 348.955773 97.0128 357.699415 93.391065 364.14524 86.94524 
C 370.591065 80.499415 374.2128 71.755773 374.2128 62.64 
C 374.2128 53.524227 370.591065 44.780585 364.14524 38.33476 
C 357.699415 31.888935 348.955773 28.2672 339.84 28.2672 
C 330.724227 28.2672 321.980585 31.888935 315.53476 38.33476 
C 309.088935 44.780585 305.4672 53.524227 305.4672 62.64 
C 305.4672 71.755773 309.088935 80.499415 315.53476 86.94524 
C 321.980585 93.391065 330.724227 97.0128 339.84 97.0128 
L 339.84 97.0128 
z
" clip-path="url(#p63c13b7aa8)" style="fill: none; stroke: #000000; stroke-width: 2.2; stroke-linejoin: miter"/>
   </g>
   <g id="patch_78">
    <path d="M 339.84 41.5728 
C 348.955773 41.5728 357.699415 37.951065 364.14524 31.50524 
C 370.591065 25.059415 374.2128 16.315773 374.2128 7.2 
C 374.2128 -1.915773 370.591065 -10.659415 364.14524 -17.10524 
C 357.699415 -23.551065 348.955773 -27.1728 339.84 -27.1728 
C 330.724227 -27.1728 321.980585 -23.551065 315.53476 -17.10524 
C 309.088935 -10.659415 305.4672 -1.915773 305.4672 7.2 
C 305.4672 16.315773 309.088935 25.059415 315.53476 31.50524 
C 321.980585 37.951065 330.724227 41.5728 339.84 41.5728 
L 339.84 41.5728 
z
" clip-path="url(#p63c13b7aa8)" style="fill: none; stroke: #000000; stroke-width: 2.2; stroke-linejoin: miter"/>
   </g>
   <g id="patch_79">
    <path d="M 7.2 544.968 
L 23.832 561.6 
L 15.632 569.8 
M -1 553.168 
L 7.2 544.968 
" clip-path="url(#p63c13b7aa8)" style="fill: none; stroke: #000000; stroke-width: 2.2; stroke-linejoin: miter"/>
   </g>
   <g id="patch_80">
    <path d="M 7.2 489.528 
L 23.832 506.16 
L 7.2 522.792 
L -1 514.592 
M -1 497.728 
L 7.2 489.528 
" clip-path="url(#p63c13b7aa8)" style="fill: none; stroke: #000000; stroke-width: 2.2; stroke-linejoin: miter"/>
   </g>
   <g id="patch_81">
    <path d="M 7.2 434.088 
L 23.832 450.72 
L 7.2 467.352 
L -1 459.152 
M -1 442.288 
L 7.2 434.088 
" clip-path="url(#p63c13b7aa8)" style="fill: none; stroke: #000000; stroke-width: 2.2; stroke-linejoin: miter"/>
   </g>
   <g id="patch_82">
    <path d="M 7.2 378.648 
L 23.832 395.28 
L 7.2 411.912 
L -1 403.712 
M -1 386.848 
L 7.2 378.648 
" clip-path="url(#p63c13b7aa8)" style="fill: none; stroke: #000000; stroke-width: 2.2; stroke-linejoin: miter"/>
   </g>
   <g id="patch_83">
    <path d="M 7.2 323.208 
L 23.832 339.84 
L 7.2 356.472 
L -1 348.272 
M -1 331.408 
L 7.2 323.208 
" clip-path="url(#p63c13b7aa8)" style="fill: none; stroke: #000000; stroke-width: 2.2; stroke-linejoin: miter"/>
   </g>
   <g id="patch_84">
    <path d="M 7.2 267.768 
L 23.832 284.4 
L 7.2 301.032 
L -1 292.832 
M -1 275.968 
L 7.2 267.768 
" clip-path="url(#p63c13b7aa8)" style="fill: none; stroke: #000000; stroke-width: 2.2; stroke-linejoin: miter"/>
   </g>
   <g id="patch_85">
    <path d="M 7.2 212.328 
L 23.832 228.96 
L 7.2 245.592 
L -1 237.392 
M -1 220.528 
L 7.2 212.328 
" clip-path="url(#p63c13b7aa8)" style="fill: none; stroke: #000000; stroke-width: 2.2; stroke-linejoin: miter"/>
   </g>
   <g id="patch_86">
    <path d="M 7.2 156.888 
L 23.832 173.52 
L 7.2 190.152 
L -1 181.952 
M -1 165.088 
L 7.2 156.888 
" clip-path="url(#p63c13b7aa8)" style="fill: none; stroke: #000000; stroke-width: 2.2; stroke-linejoin: miter"/>
   </g>
   <g id="patch_87">
    <path d="M 7.2 101.448 
L 23.832 118.08 
L 7.2 134.712 
L -1 126.512 
M -1 109.648 
L 7.2 101.448 
" clip-path="url(#p63c13b7aa8)" style="fill: none; stroke: #000000; stroke-width: 2.2; stroke-linejoin: miter"/>
   </g>
   <g id="patch_88">
    <path d="M 7.2 46.008 
L 23.832 62.64 
L 7.2 79.272 
L -1 71.072 
M -1 54.208 
L 7.2 46.008 
" clip-path="url(#p63c13b7aa8)" style="fill: none; stroke: #000000; stroke-width: 2.2; stroke-linejoin: miter"/>
   </g>
   <g id="patch_89">
    <path d="M 15.632 -1 
L 23.832 7.2 
L 7.2 23.832 
L -1 15.632 
" clip-path="url(#p63c13b7aa8)" style="fill: none; stroke: #000000; stroke-width: 2.2; stroke-linejoin: miter"/>
   </g>
   <g id="patch_90">
    <path d="M 62.64 544.968 
L 79.272 561.6 
L 71.072 569.8 
M 54.208 569.8 
L 46.008 561.6 
L 62.64 544.968 
" clip-path="url(#p63c13b7aa8)" style="fill: none; stroke: #000000; stroke-width: 2.2; stroke-linejoin: miter"/>
   </g>
   <g id="patch_91">
    <path d="M 62.64 489.528 
L 79.272 506.16 
L 62.64 522.792 
L 46.008 506.16 
L 62.64 489.528 
z
" clip-path="url(#p63c13b7aa8)" style="fill: none; stroke: #000000; stroke-width: 2.2; stroke-linejoin: miter"/>
   </g>
   <g id="patch_92">
    <path d="M 62.64 434.088 
L 79.272 450.72 
L 62.64 467.352 
L 46.008 450.72 
L 62.64 434.088 
z
" clip-path="url(#p63c13b7aa8)" style="fill: none; stroke: #000000; stroke-width: 2.2; stroke-linejoin: miter"/>
   </g>
   <g id="patch_93">
    <path d="M 62.64 378.648 
L 79.272 395.28 
L 62.64 411.912 
L 46.008 395.28 
L 62.64 378.648 
z
" clip-path="url(#p63c13b7aa8)" style="fill: none; stroke: #000000; stroke-width: 2.2; stroke-linejoin: miter"/>
   </g>
   <g id="patch_94">
    <path d="M 62.64 323.208 
L 79.272 339.84 
L 62.64 356.472 
L 46.008 339.84 
L 62.64 323.208 
z
" clip-path="url(#p63c13b7aa8)" style="fill: none; stroke: #000000; stroke-width: 2.2; stroke-linejoin: miter"/>
   </g>
   <g id="patch_95">
    <path d="M 62.64 267.768 
L 79.272 284.4 
L 62.64 301.032 
L 46.008 284.4 
L 62.64 267.768 
z
" clip-path="url(#p63c13b7aa8)" style="fill: none; stroke: #000000; stroke-width: 2.2; stroke-linejoin: miter"/>
   </g>
   <g id="patch_96">
    <path d="M 62.64 212.328 
L 79.272 228.96 
L 62.64 245.592 
L 46.008 228.96 
L 62.64 212.328 
z
" clip-path="url(#p63c13b7aa8)" style="fill: none; stroke: #000000; stroke-width: 2.2; stroke-linejoin: miter"/>
   </g>
   <g id="patch_97">
    <path d="M 62.64 156.888 
L 79.272 173.52 
L 62.64 190.152 
L 46.008 173.52 
L 62.64 156.888 
z
" clip-path="url(#p63c13b7aa8)" style="fill: none; stroke: #000000; stroke-width: 2.2; stroke-linejoin: miter"/>
   </g>
   <g id="patch_98">
    <path d="M 62.64 101.448 
L 79.272 118.08 
L 62.64 134.712 
L 46.008 118.08 
L 62.64 101.448 
z
" clip-path="url(#p63c13b7aa8)" style="fill: none; stroke: #000000; stroke-width: 2.2; stroke-linejoin: miter"/>
   </g>
   <g id="patch_99">
    <path d="M 62.64 46.008 
L 79.272 62.64 
L 62.64 79.272 
L 46.008 62.64 
L 62.64 46.008 
z
" clip-path="url(#p63c13b7aa8)" style="fill: none; stroke: #000000; stroke-width: 2.2; stroke-linejoin: miter"/>
   </g>
   <g id="patch_100">
    <path d="M 71.072 -1 
L 79.272 7.2 
L 62.64 23.832 
L 46.008 7.2 
L 54.208 -1 
" clip-path="url(#p63c13b7aa8)" style="fill: none; stroke: #000000; stroke-width: 2.2; stroke-linejoin: miter"/>
   </g>
   <g id="patch_101">
    <path d="M 118.08 544.968 
L 134.712 561.6 
L 126.512 569.8 
M 109.648 569.8 
L 101.448 561.6 
L 118.08 544.968 
" clip-path="url(#p63c13b7aa8)" style="fill: none; stroke: #000000; stroke-width: 2.2; stroke-linejoin: miter"/>
   </g>
   <g id="patch_102">
    <path d="M 118.08 489.528 
L 134.712 506.16 
L 118.08 522.792 
L 101.448 506.16 
L 118.08 489.528 
z
" clip-path="url(#p63c13b7aa8)" style="fill: none; stroke: #000000; stroke-width: 2.2; stroke-linejoin: miter"/>
   </g>
   <g id="patch_103">
    <path d="M 118.08 434.088 
L 134.712 450.72 
L 118.08 467.352 
L 101.448 450.72 
L 118.08 434.088 
z
" clip-path="url(#p63c13b7aa8)" style="fill: none; stroke: #000000; stroke-width: 2.2; stroke-linejoin: miter"/>
   </g>
   <g id="patch_104">
    <path d="M 118.08 378.648 
L 134.712 395.28 
L 118.08 411.912 
L 101.448 395.28 
L 118.08 378.648 
z
" clip-path="url(#p63c13b7aa8)" style="fill: none; stroke: #000000; stroke-width: 2.2; stroke-linejoin: miter"/>
   </g>
   <g id="patch_105">
    <path d="M 118.08 323.208 
L 134.712 339.84 
L 118.08 356.472 
L 101.448 339.84 
L 118.08 323.208 
z
" clip-path="url(#p63c13b7aa8)" style="fill: none; stroke: #000000; stroke-width: 2.2; stroke-linejoin: miter"/>
   </g>
   <g id="patch_106">
    <path d="M 118.08 267.768 
L 134.712 284.4 
L 118.08 301.032 
L 101.448 284.4 
L 118.08 267.768 
z
" clip-path="url(#p63c13b7aa8)" style="fill: none; stroke: #000000; stroke-width: 2.2; stroke-linejoin: miter"/>
   </g>
   <g id="patch_107">
    <path d="M 118.08 212.328 
L 134.712 228.96 
L 118.08 245.592 
L 101.448 228.96 
L 118.08 212.328 
z
" clip-path="url(#p63c13b7aa8)" style="fill: none; stroke: #000000; stroke-width: 2.2; stroke-linejoin: miter"/>
   </g>
   <g id="patch_108">
    <path d="M 118.08 156.888 
L 134.712 173.52 
L 118.08 190.152 
L 101.448 173.52 
L 118.08 156.888 
z
" clip-path="url(#p63c13b7aa8)" style="fill: none; stroke: #000000; stroke-width: 2.2; stroke-linejoin: miter"/>
   </g>
   <g id="patch_109">
    <path d="M 118.08 101.448 
L 134.712 118.08 
L 118.08 134.712 
L 101.448 118.08 
L 118.08 101.448 
z
" clip-path="url(#p63c13b7aa8)" style="fill: none; stroke: #000000; stroke-width: 2.2; stroke-linejoin: miter"/>
   </g>
   <g id="patch_110">
    <path d="M 118.08 46.008 
L 134.712 62.64 
L 118.08 79.272 
L 101.448 62.64 
L 118.08 46.008 
z
" clip-path="url(#p63c13b7aa8)" style="fill: none; stroke: #000000; stroke-width: 2.2; stroke-linejoin: miter"/>
   </g>
   <g id="patch_111">
    <path d="M 126.512 -1 
L 134.712 7.2 
L 118.08 23.832 
L 101.448 7.2 
L 109.648 -1 
" clip-path="url(#p63c13b7aa8)" style="fill: none; stroke: #000000; stroke-width: 2.2; stroke-linejoin: miter"/>
   </g>
   <g id="patch_112">
    <path d="M 173.52 544.968 
L 190.152 561.6 
L 181.952 569.8 
M 165.088 569.8 
L 156.888 561.6 
L 173.52 544.968 
" clip-path="url(#p63c13b7aa8)" style="fill: none; stroke: #000000; stroke-width: 2.2; stroke-linejoin: miter"/>
   </g>
   <g id="patch_113">
    <path d="M 173.52 489.528 
L 190.152 506.16 
L 173.52 522.792 
L 156.888 506.16 
L 173.52 489.528 
z
" clip-path="url(#p63c13b7aa8)" style="fill: none; stroke: #000000; stroke-width: 2.2; stroke-linejoin: miter"/>
   </g>
   <g id="patch_114">
    <path d="M 173.52 434.088 
L 190.152 450.72 
L 173.52 467.352 
L 156.888 450.72 
L 173.52 434.088 
z
" clip-path="url(#p63c13b7aa8)" style="fill: none; stroke: #000000; stroke-width: 2.2; stroke-linejoin: miter"/>
   </g>
   <g id="patch_115">
    <path d="M 173.52 378.648 
L 190.152 395.28 
L 173.52 411.912 
L 156.888 395.28 
L 173.52 378.648 
z
" clip-path="url(#p63c13b7aa8)" style="fill: none; stroke: #000000; stroke-width: 2.2; stroke-linejoin: miter"/>
   </g>
   <g id="patch_116">
    <path d="M 173.52 323.208 
L 190.152 339.84 
L 173.52 356.472 
L 156.888 339.84 
L 173.52 323.208 
z
" clip-path="url(#p63c13b7aa8)" style="fill: none; stroke: #000000; stroke-width: 2.2; stroke-linejoin: miter"/>
   </g>
   <g id="patch_117">
    <path d="M 173.52 267.768 
L 190.152 284.4 
L 173.52 301.032 
L 156.888 284.4 
L 173.52 267.768 
z
" clip-path="url(#p63c13b7aa8)" style="fill: none; stroke: #000000; stroke-width: 2.2; stroke-linejoin: miter"/>
   </g>
   <g id="patch_118">
    <path d="M 173.52 212.328 
L 190.152 228.96 
L 173.52 245.592 
L 156.888 228.96 
L 173.52 212.328 
z
" clip-path="url(#p63c13b7aa8)" style="fill: none; stroke: #000000; stroke-width: 2.2; stroke-linejoin: miter"/>
   </g>
   <g id="patch_119">
    <path d="M 173.52 156.888 
L 190.152 173.52 
L 173.52 190.152 
L 156.888 173.52 
L 173.52 156.888 
z
" clip-path="url(#p63c13b7aa8)" style="fill: none; stroke: #000000; stroke-width: 2.2; stroke-linejoin: miter"/>
   </g>
   <g id="patch_120">
    <path d="M 173.52 101.448 
L 190.152 118.08 
L 173.52 134.712 
L 156.888 118.08 
L 173.52 101.448 
z
" clip-path="url(#p63c13b7aa8)" style="fill: none; stroke: #000000; stroke-width: 2.2; stroke-linejoin: miter"/>
   </g>
   <g id="patch_121">
    <path d="M 173.52 46.008 
L 190.152 62.64 
L 173.52 79.272 
L 156.888 62.64 
L 173.52 46.008 
z
" clip-path="url(#p63c13b7aa8)" style="fill: none; stroke: #000000; stroke-width: 2.2; stroke-linejoin: miter"/>
   </g>
   <g id="patch_122">
    <path d="M 181.952 -1 
L 190.152 7.2 
L 173.52 23.832 
L 156.888 7.2 
L 165.088 -1 
" clip-path="url(#p63c13b7aa8)" style="fill: none; stroke: #000000; stroke-width: 2.2; stroke-linejoin: miter"/>
   </g>
   <g id="patch_123">
    <path d="M 228.96 544.968 
L 245.592 561.6 
L 237.392 569.8 
M 220.528 569.8 
L 212.328 561.6 
L 228.96 544.968 
" clip-path="url(#p63c13b7aa8)" style="fill: none; stroke: #000000; stroke-width: 2.2; stroke-linejoin: miter"/>
   </g>
   <g id="patch_124">
    <path d="M 228.96 489.528 
L 245.592 506.16 
L 228.96 522.792 
L 212.328 506.16 
L 228.96 489.528 
z
" clip-path="url(#p63c13b7aa8)" style="fill: none; stroke: #000000; stroke-width: 2.2; stroke-linejoin: miter"/>
   </g>
   <g id="patch_125">
    <path d="M 228.96 434.088 
L 245.592 450.72 
L 228.96 467.352 
L 212.328 450.72 
L 228.96 434.088 
z
" clip-path="url(#p63c13b7aa8)" style="fill: none; stroke: #000000; stroke-width: 2.2; stroke-linejoin: miter"/>
   </g>
   <g id="patch_126">
    <path d="M 228.96 378.648 
L 245.592 395.28 
L 228.96 411.912 
L 212.328 395.28 
L 228.96 378.648 
z
" clip-path="url(#p63c13b7aa8)" style="fill: none; stroke: #000000; stroke-width: 2.2; stroke-linejoin: miter"/>
   </g>
   <g id="patch_127">
    <path d="M 228.96 323.208 
L 245.592 339.84 
L 228.96 356.472 
L 212.328 339.84 
L 228.96 323.208 
z
" clip-path="url(#p63c13b7aa8)" style="fill: none; stroke: #000000; stroke-width: 2.2; stroke-linejoin: miter"/>
   </g>
   <g id="patch_128">
    <path d="M 228.96 267.768 
L 245.592 284.4 
L 228.96 301.032 
L 212.328 284.4 
L 228.96 267.768 
z
" clip-path="url(#p63c13b7aa8)" style="fill: none; stroke: #000000; stroke-width: 2.2; stroke-linejoin: miter"/>
   </g>
   <g id="patch_129">
    <path d="M 228.96 212.328 
L 245.592 228.96 
L 228.96 245.592 
L 212.328 228.96 
L 228.96 212.328 
z
" clip-path="url(#p63c13b7aa8)" style="fill: none; stroke: #000000; stroke-width: 2.2; stroke-linejoin: miter"/>
   </g>
   <g id="patch_130">
    <path d="M 228.96 156.888 
L 245.592 173.52 
L 228.96 190.152 
L 212.328 173.52 
L 228.96 156.888 
z
" clip-path="url(#p63c13b7aa8)" style="fill: none; stroke: #000000; stroke-width: 2.2; stroke-linejoin: miter"/>
   </g>
   <g id="patch_131">
    <path d="M 228.96 101.448 
L 245.592 118.08 
L 228.96 134.712 
L 212.328 118.08 
L 228.96 101.448 
z
" clip-path="url(#p63c13b7aa8)" style="fill: none; stroke: #000000; stroke-width: 2.2; stroke-linejoin: miter"/>
   </g>
   <g id="patch_132">
    <path d="M 228.96 46.008 
L 245.592 62.64 
L 228.96 79.272 
L 212.328 62.64 
L 228.96 46.008 
z
" clip-path="url(#p63c13b7aa8)" style="fill: none; stroke: #000000; stroke-width: 2.2; stroke-linejoin: miter"/>
   </g>
   <g id="patch_133">
    <path d="M 237.392 -1 
L 245.592 7.2 
L 228.96 23.832 
L 212.328 7.2 
L 220.528 -1 
" clip-path="url(#p63c13b7aa8)" style="fill: none; stroke: #000000; stroke-width: 2.2; stroke-linejoin: miter"/>
   </g>
   <g id="patch_134">
    <path d="M 284.4 544.968 
L 301.032 561.6 
L 292.832 569.8 
M 275.968 569.8 
L 267.768 561.6 
L 284.4 544.968 
" clip-path="url(#p63c13b7aa8)" style="fill: none; stroke: #000000; stroke-width: 2.2; stroke-linejoin: miter"/>
   </g>
   <g id="patch_135">
    <path d="M 284.4 489.528 
L 301.032 506.16 
L 284.4 522.792 
L 267.768 506.16 
L 284.4 489.528 
z
" clip-path="url(#p63c13b7aa8)" style="fill: none; stroke: #000000; stroke-width: 2.2; stroke-linejoin: miter"/>
   </g>
   <g id="patch_136">
    <path d="M 284.4 434.088 
L 301.032 450.72 
L 284.4 467.352 
L 267.768 450.72 
L 284.4 434.088 
z
" clip-path="url(#p63c13b7aa8)" style="fill: none; stroke: #000000; stroke-width: 2.2; stroke-linejoin: miter"/>
   </g>
   <g id="patch_137">
    <path d="M 284.4 378.648 
L 301.032 395.28 
L 284.4 411.912 
L 267.768 395.28 
L 284.4 378.648 
z
" clip-path="url(#p63c13b7aa8)" style="fill: none; stroke: #000000; stroke-width: 2.2; stroke-linejoin: miter"/>
   </g>
   <g id="patch_138">
    <path d="M 284.4 323.208 
L 301.032 339.84 
L 284.4 356.472 
L 267.768 339.84 
L 284.4 323.208 
z
" clip-path="url(#p63c13b7aa8)" style="fill: none; stroke: #000000; stroke-width: 2.2; stroke-linejoin: miter"/>
   </g>
   <g id="patch_139">
    <path d="M 284.4 267.768 
L 301.032 284.4 
L 284.4 301.032 
L 267.768 284.4 
L 284.4 267.768 
z
" clip-path="url(#p63c13b7aa8)" style="fill: none; stroke: #000000; stroke-width: 2.2; stroke-linejoin: miter"/>
   </g>
   <g id="patch_140">
    <path d="M 284.4 212.328 
L 301.032 228.96 
L 284.4 245.592 
L 267.768 228.96 
L 284.4 212.328 
z
" clip-path="url(#p63c13b7aa8)" style="fill: none; stroke: #000000; stroke-width: 2.2; stroke-linejoin: miter"/>
   </g>
   <g id="patch_141">
    <path d="M 284.4 156.888 
L 301.032 173.52 
L 284.4 190.152 
L 267.768 173.52 
L 284.4 156.888 
z
" clip-path="url(#p63c13b7aa8)" style="fill: none; stroke: #000000; stroke-width: 2.2; stroke-linejoin: miter"/>
   </g>
   <g id="patch_142">
    <path d="M 284.4 101.448 
L 301.032 118.08 
L 284.4 134.712 
L 267.768 118.08 
L 284.4 101.448 
z
" clip-path="url(#p63c13b7aa8)" style="fill: none; stroke: #000000; stroke-width: 2.2; stroke-linejoin: miter"/>
   </g>
   <g id="patch_143">
    <path d="M 284.4 46.008 
L 301.032 62.64 
L 284.4 79.272 
L 267.768 62.64 
L 284.4 46.008 
z
" clip-path="url(#p63c13b7aa8)" style="fill: none; stroke: #000000; stroke-width: 2.2; stroke-linejoin: miter"/>
   </g>
   <g id="patch_144">
    <path d="M 292.832 -1 
L 301.032 7.2 
L 284.4 23.832 
L 267.768 7.2 
L 275.968 -1 
" clip-path="url(#p63c13b7aa8)" style="fill: none; stroke: #000000; stroke-width: 2.2; stroke-linejoin: miter"/>
   </g>
   <g id="patch_145">
    <path d="M 339.84 544.968 
L 348.04 553.168 
M 331.408 569.8 
L 323.208 561.6 
L 339.84 544.968 
" clip-path="url(#p63c13b7aa8)" style="fill: none; stroke: #000000; stroke-width: 2.2; stroke-linejoin: miter"/>
   </g>
   <g id="patch_146">
    <path d="M 339.84 489.528 
L 348.04 497.728 
M 348.04 514.592 
L 339.84 522.792 
L 323.208 506.16 
L 339.84 489.528 
" clip-path="url(#p63c13b7aa8)" style="fill: none; stroke: #000000; stroke-width: 2.2; stroke-linejoin: miter"/>
   </g>
   <g id="patch_147">
    <path d="M 339.84 434.088 
L 348.04 442.288 
M 348.04 459.152 
L 339.84 467.352 
L 323.208 450.72 
L 339.84 434.088 
" clip-path="url(#p63c13b7aa8)" style="fill: none; stroke: #000000; stroke-width: 2.2; stroke-linejoin: miter"/>
   </g>
   <g id="patch_148">
    <path d="M 339.84 378.648 
L 348.04 386.848 
M 348.04 403.712 
L 339.84 411.912 
L 323.208 395.28 
L 339.84 378.648 
" clip-path="url(#p63c13b7aa8)" style="fill: none; stroke: #000000; stroke-width: 2.2; stroke-linejoin: miter"/>
   </g>
   <g id="patch_149">
    <path d="M 339.84 323.208 
L 348.04 331.408 
M 348.04 348.272 
L 339.84 356.472 
L 323.208 339.84 
L 339.84 323.208 
" clip-path="url(#p63c13b7aa8)" style="fill: none; stroke: #000000; stroke-width: 2.2; stroke-linejoin: miter"/>
   </g>
   <g id="patch_150">
    <path d="M 339.84 267.768 
L 348.04 275.968 
M 348.04 292.832 
L 339.84 301.032 
L 323.208 284.4 
L 339.84 267.768 
" clip-path="url(#p63c13b7aa8)" style="fill: none; stroke: #000000; stroke-width: 2.2; stroke-linejoin: miter"/>
   </g>
   <g id="patch_151">
    <path d="M 339.84 212.328 
L 348.04 220.528 
M 348.04 237.392 
L 339.84 245.592 
L 323.208 228.96 
L 339.84 212.328 
" clip-path="url(#p63c13b7aa8)" style="fill: none; stroke: #000000; stroke-width: 2.2; stroke-linejoin: miter"/>
   </g>
   <g id="patch_152">
    <path d="M 339.84 156.888 
L 348.04 165.088 
M 348.04 181.952 
L 339.84 190.152 
L 323.208 173.52 
L 339.84 156.888 
" clip-path="url(#p63c13b7aa8)" style="fill: none; stroke: #000000; stroke-width: 2.2; stroke-linejoin: miter"/>
   </g>
   <g id="patch_153">
    <path d="M 339.84 101.448 
L 348.04 109.648 
M 348.04 126.512 
L 339.84 134.712 
L 323.208 118.08 
L 339.84 101.448 
" clip-path="url(#p63c13b7aa8)" style="fill: none; stroke: #000000; stroke-width: 2.2; stroke-linejoin: miter"/>
   </g>
   <g id="patch_154">
    <path d="M 339.84 46.008 
L 348.04 54.208 
M 348.04 71.072 
L 339.84 79.272 
L 323.208 62.64 
L 339.84 46.008 
" clip-path="url(#p63c13b7aa8)" style="fill: none; stroke: #000000; stroke-width: 2.2; stroke-linejoin: miter"/>
   </g>
   <g id="patch_155">
    <path d="M 348.04 15.632 
L 339.84 23.832 
L 323.208 7.2 
L 331.408 -1 
" clip-path="url(#p63c13b7aa8)" style="fill: none; stroke: #000000; stroke-width: 2.2; stroke-linejoin: miter"/>
   </g>
   <g id="patch_156">
    <path d="M 7.2 561.6 
L 339.84 561.6 
L 339.84 7.2 
L 7.2 7.2 
L 7.2 561.6 
z
" clip-path="url(#p63c13b7aa8)" style="fill: none; stroke: #000000; stroke-width: 3; stroke-linejoin: miter"/>
   </g>
  </g>
 </g>
 <defs>
  <clipPath id="p63c13b7aa8">
   <rect x="7.2" y="7.2" width="332.64" height="554.4"/>
  </clipPath>
 </defs>
</svg>
