<?xml version="1.0" encoding="utf-8" standalone="no"?>
<!DOCTYPE svg PUBLIC "-//W3C//DTD SVG 1.1//EN"
  "http://www.w3.org/Graphics/SVG/1.1/DTD/svg11.dtd">
<svg xmlns:xlink="http://www.w3.org/1999/xlink" width="347.04pt" height="568.8pt" viewBox="0 0 347.04 568.8" xmlns="http://www.w3.org/2000/svg" version="1.1">
 <metadata>
  <rdf:RDF xmlns:dc="http://purl.org/dc/elements/1.1/" xmlns:cc="http://creativecommons.org/ns#" xmlns:rdf="http://www.w3.org/1999/02/22-rdf-syntax-ns#">
   <cc:Work>
    <dc:type rdf:resource="http://purl.org/dc/dcmitype/StillImage"/>
    <dc:date>2026-07-10T18:18:19.076919</dc:date>
    <dc:format>image/svg+xml</dc:format>
    <dc:creator>
     <cc:Agent>
      <dc:title>Matplotlib v3.10.8, https://matplotlib.org/</dc:title>
     </cc:Agent>
    </dc:creator>
   </cc:Work>
  </rdf:RDF>
 </metadata>
 <defs>
  <style type="text/css">*{stroke-linejoin: round; stroke-linecap: butt}</style>
 </defs>
 <g id="figure_1">
  <g id="patch_1">
   <path d="M 0 568.8 
L 347.04 568.8 
L 347.04 0 
L 0 0 
z
" style="fill: #ffffff"/>
  </g>
  <g id="axes_1">
   <g id="patch_2">
    <path d="M 32.809941 550.992015 
L 15.0404 553.7596 
L 17.807985 535.990059 
L 7.2 550.512 
L -1 539.286502 
M -1 551.450754 
L -0.6404 553.7596 
L -1 553.703593 
M -1 569.496407 
L -0.6404 569.4404 
L -0.696407 569.8 
M 15.096407 569.8 
L 15.0404 569.4404 
L 17.349246 569.8 
M 29.513498 569.8 
L 18.288 561.6 
L 32.809941 550.992015 
" clip-path="url(#pe40512fd88)" style="fill: none; stroke: #000000; stroke-width: 2.2; stroke-linejoin: miter"/>
   </g>
   <g id="patch_3">
    <path d="M 32.809941 495.552015 
L 15.0404 498.3196 
L 17.807985 480.550059 
L 7.2 495.072 
L -1 483.846502 
M -1 496.010754 
L -0.6404 498.3196 
L -1 498.263593 
M -1 514.056407 
L -0.6404 514.0004 
L -1 516.309246 
M -1 528.473498 
L 7.2 517.248 
L 17.807985 531.769941 
L 15.0404 514.0004 
L 32.809941 516.767985 
L 18.288 506.16 
L 32.809941 495.552015 
" clip-path="url(#pe40512fd88)" style="fill: none; stroke: #000000; stroke-width: 2.2; stroke-linejoin: miter"/>
   </g>
   <g id="patch_4">
    <path d="M 32.809941 440.112015 
L 15.0404 442.8796 
L 17.807985 425.110059 
L 7.2 439.632 
L -1 428.406502 
M -1 440.570754 
L -0.6404 442.8796 
L -1 442.823593 
M -1 458.616407 
L -0.6404 458.5604 
L -1 460.869246 
M -1 473.033498 
L 7.2 461.808 
L 17.807985 476.329941 
L 15.0404 458.5604 
L 32.809941 461.327985 
L 18.288 450.72 
L 32.809941 440.112015 
" clip-path="url(#pe40512fd88)" style="fill: none; stroke: #000000; stroke-width: 2.2; stroke-linejoin: miter"/>
   </g>
   <g id="patch_5">
    <path d="M 32.809941 384.672015 
L 15.0404 387.4396 
L 17.807985 369.670059 
L 7.2 384.192 
L -1 372.966502 
M -1 385.130754 
L -0.6404 387.4396 
L -1 387.383593 
M -1 403.176407 
L -0.6404 403.1204 
L -1 405.429246 
M -1 417.593498 
L 7.2 406.368 
L 17.807985 420.889941 
L 15.0404 403.1204 
L 32.809941 405.887985 
L 18.288 395.28 
L 32.809941 384.672015 
" clip-path="url(#pe40512fd88)" style="fill: none; stroke: #000000; stroke-width: 2.2; stroke-linejoin: miter"/>
   </g>
   <g id="patch_6">
    <path d="M 32.809941 329.232015 
L 15.0404 331.9996 
L 17.807985 314.230059 
L 7.2 328.752 
L -1 317.526502 
M -1 329.690754 
L -0.6404 331.9996 
L -1 331.943593 
M -1 347.736407 
L -0.6404 347.6804 
L -1 349.989246 
M -1 362.153498 
L 7.2 350.928 
L 17.807985 365.449941 
L 15.0404 347.6804 
L 32.809941 350.447985 
L 18.288 339.84 
L 32.809941 329.232015 
" clip-path="url(#pe40512fd88)" style="fill: none; stroke: #000000; stroke-width: 2.2; stroke-linejoin: miter"/>
   </g>
   <g id="patch_7">
    <path d="M 32.809941 273.792015 
L 15.0404 276.5596 
L 17.807985 258.790059 
L 7.2 273.312 
L -1 262.086502 
M -1 274.250754 
L -0.6404 276.5596 
L -1 276.503593 
M -1 292.296407 
L -0.6404 292.2404 
L -1 294.549246 
M -1 306.713498 
L 7.2 295.488 
L 17.807985 310.009941 
L 15.0404 292.2404 
L 32.809941 295.007985 
L 18.288 284.4 
L 32.809941 273.792015 
" clip-path="url(#pe40512fd88)" style="fill: none; stroke: #000000; stroke-width: 2.2; stroke-linejoin: miter"/>
   </g>
   <g id="patch_8">
    <path d="M 32.809941 218.352015 
L 15.0404 221.1196 
L 17.807985 203.350059 
L 7.2 217.872 
L -1 206.646502 
M -1 218.810754 
L -0.6404 221.1196 
L -1 221.063593 
M -1 236.856407 
L -0.6404 236.8004 
L -1 239.109246 
M -1 251.273498 
L 7.2 240.048 
L 17.807985 254.569941 
L 15.0404 236.8004 
L 32.809941 239.567985 
L 18.288 228.96 
L 32.809941 218.352015 
" clip-path="url(#pe40512fd88)" style="fill: none; stroke: #000000; stroke-width: 2.2; stroke-linejoin: miter"/>
   </g>
   <g id="patch_9">
    <path d="M 32.809941 162.912015 
L 15.0404 165.6796 
L 17.807985 147.910059 
L 7.2 162.432 
L -1 151.206502 
M -1 163.370754 
L -0.6404 165.6796 
L -1 165.623593 
M -1 181.416407 
L -0.6404 181.3604 
L -1 183.669246 
M -1 195.833498 
L 7.2 184.608 
L 17.807985 199.129941 
L 15.0404 181.3604 
L 32.809941 184.127985 
L 18.288 173.52 
L 32.809941 162.912015 
" clip-path="url(#pe40512fd88)" style="fill: none; stroke: #000000; stroke-width: 2.2; stroke-linejoin: miter"/>
   </g>
   <g id="patch_10">
    <path d="M 32.809941 107.472015 
L 15.0404 110.2396 
L 17.807985 92.470059 
L 7.2 106.992 
L -1 95.766502 
M -1 107.930754 
L -0.6404 110.2396 
L -1 110.183593 
M -1 125.976407 
L -0.6404 125.9204 
L -1 128.229246 
M -1 140.393498 
L 7.2 129.168 
L 17.807985 143.689941 
L 15.0404 125.9204 
L 32.809941 128.687985 
L 18.288 118.08 
L 32.809941 107.472015 
" clip-path="url(#pe40512fd88)" style="fill: none; stroke: #000000; stroke-width: 2.2; stroke-linejoin: miter"/>
   </g>
   <g id="patch_11">
    <path d="M 32.809941 52.032015 
L 15.0404 54.7996 
L 17.807985 37.030059 
L 7.2 51.552 
L -1 40.326502 
M -1 52.490754 
L -0.6404 54.7996 
L -1 54.743593 
M -1 70.536407 
L -0.6404 70.4804 
L -1 72.789246 
M -1 84.953498 
L 7.2 73.728 
L 17.807985 88.249941 
L 15.0404 70.4804 
L 32.809941 73.247985 
L 18.288 62.64 
L 32.809941 52.032015 
" clip-path="url(#pe40512fd88)" style="fill: none; stroke: #000000; stroke-width: 2.2; stroke-linejoin: miter"/>
   </g>
   <g id="patch_12">
    <path d="M 17.349246 -1 
L 15.0404 -0.6404 
L 15.096407 -1 
M -0.696407 -1 
L -0.6404 -0.6404 
L -1 -0.696407 
M -1 15.096407 
L -0.6404 15.0404 
L -1 17.349246 
M -1 29.513498 
L 7.2 18.288 
L 17.807985 32.809941 
L 15.0404 15.0404 
L 32.809941 17.807985 
L 18.288 7.2 
L 29.513498 -1 
" clip-path="url(#pe40512fd88)" style="fill: none; stroke: #000000; stroke-width: 2.2; stroke-linejoin: miter"/>
   </g>
   <g id="patch_13">
    <path d="M 88.249941 550.992015 
L 70.4804 553.7596 
L 73.247985 535.990059 
L 62.64 550.512 
L 52.032015 535.990059 
L 54.7996 553.7596 
L 37.030059 550.992015 
L 51.552 561.6 
L 40.326502 569.8 
M 52.490754 569.8 
L 54.7996 569.4404 
L 54.743593 569.8 
M 70.536407 569.8 
L 70.4804 569.4404 
L 72.789246 569.8 
M 84.953498 569.8 
L 73.728 561.6 
L 88.249941 550.992015 
" clip-path="url(#pe40512fd88)" style="fill: none; stroke: #000000; stroke-width: 2.2; stroke-linejoin: miter"/>
   </g>
   <g id="patch_14">
    <path d="M 88.249941 495.552015 
L 70.4804 498.3196 
L 73.247985 480.550059 
L 62.64 495.072 
L 52.032015 480.550059 
L 54.7996 498.3196 
L 37.030059 495.552015 
L 51.552 506.16 
L 37.030059 516.767985 
L 54.7996 514.0004 
L 52.032015 531.769941 
L 62.64 517.248 
L 73.247985 531.769941 
L 70.4804 514.0004 
L 88.249941 516.767985 
L 73.728 506.16 
L 88.249941 495.552015 
z
" clip-path="url(#pe40512fd88)" style="fill: none; stroke: #000000; stroke-width: 2.2; stroke-linejoin: miter"/>
   </g>
   <g id="patch_15">
    <path d="M 88.249941 440.112015 
L 70.4804 442.8796 
L 73.247985 425.110059 
L 62.64 439.632 
L 52.032015 425.110059 
L 54.7996 442.8796 
L 37.030059 440.112015 
L 51.552 450.72 
L 37.030059 461.327985 
L 54.7996 458.5604 
L 52.032015 476.329941 
L 62.64 461.808 
L 73.247985 476.329941 
L 70.4804 458.5604 
L 88.249941 461.327985 
L 73.728 450.72 
L 88.249941 440.112015 
z
" clip-path="url(#pe40512fd88)" style="fill: none; stroke: #000000; stroke-width: 2.2; stroke-linejoin: miter"/>
   </g>
   <g id="patch_16">
    <path d="M 88.249941 384.672015 
L 70.4804 387.4396 
L 73.247985 369.670059 
L 62.64 384.192 
L 52.032015 369.670059 
L 54.7996 387.4396 
L 37.030059 384.672015 
L 51.552 395.28 
L 37.030059 405.887985 
L 54.7996 403.1204 
L 52.032015 420.889941 
L 62.64 406.368 
L 73.247985 420.889941 
L 70.4804 403.1204 
L 88.249941 405.887985 
L 73.728 395.28 
L 88.249941 384.672015 
z
" clip-path="url(#pe40512fd88)" style="fill: none; stroke: #000000; stroke-width: 2.2; stroke-linejoin: miter"/>
   </g>
   <g id="patch_17">
    <path d="M 88.249941 329.232015 
L 70.4804 331.9996 
L 73.247985 314.230059 
L 62.64 328.752 
L 52.032015 314.230059 
L 54.7996 331.9996 
L 37.030059 329.232015 
L 51.552 339.84 
L 37.030059 350.447985 
L 54.7996 347.6804 
L 52.032015 365.449941 
L 62.64 350.928 
L 73.247985 365.449941 
L 70.4804 347.6804 
L 88.249941 350.447985 
L 73.728 339.84 
L 88.249941 329.232015 
z
" clip-path="url(#pe40512fd88)" style="fill: none; stroke: #000000; stroke-width: 2.2; stroke-linejoin: miter"/>
   </g>
   <g id="patch_18">
    <path d="M 88.249941 273.792015 
L 70.4804 276.5596 
L 73.247985 258.790059 
L 62.64 273.312 
L 52.032015 258.790059 
L 54.7996 276.5596 
L 37.030059 273.792015 
L 51.552 284.4 
L 37.030059 295.007985 
L 54.7996 292.2404 
L 52.032015 310.009941 
L 62.64 295.488 
L 73.247985 310.009941 
L 70.4804 292.2404 
L 88.249941 295.007985 
L 73.728 284.4 
L 88.249941 273.792015 
z
" clip-path="url(#pe40512fd88)" style="fill: none; stroke: #000000; stroke-width: 2.2; stroke-linejoin: miter"/>
   </g>
   <g id="patch_19">
    <path d="M 88.249941 218.352015 
L 70.4804 221.1196 
L 73.247985 203.350059 
L 62.64 217.872 
L 52.032015 203.350059 
L 54.7996 221.1196 
L 37.030059 218.352015 
L 51.552 228.96 
L 37.030059 239.567985 
L 54.7996 236.8004 
L 52.032015 254.569941 
L 62.64 240.048 
L 73.247985 254.569941 
L 70.4804 236.8004 
L 88.249941 239.567985 
L 73.728 228.96 
L 88.249941 218.352015 
z
" clip-path="url(#pe40512fd88)" style="fill: none; stroke: #000000; stroke-width: 2.2; stroke-linejoin: miter"/>
   </g>
   <g id="patch_20">
    <path d="M 88.249941 162.912015 
L 70.4804 165.6796 
L 73.247985 147.910059 
L 62.64 162.432 
L 52.032015 147.910059 
L 54.7996 165.6796 
L 37.030059 162.912015 
L 51.552 173.52 
L 37.030059 184.127985 
L 54.7996 181.3604 
L 52.032015 199.129941 
L 62.64 184.608 
L 73.247985 199.129941 
L 70.4804 181.3604 
L 88.249941 184.127985 
L 73.728 173.52 
L 88.249941 162.912015 
z
" clip-path="url(#pe40512fd88)" style="fill: none; stroke: #000000; stroke-width: 2.2; stroke-linejoin: miter"/>
   </g>
   <g id="patch_21">
    <path d="M 88.249941 107.472015 
L 70.4804 110.2396 
L 73.247985 92.470059 
L 62.64 106.992 
L 52.032015 92.470059 
L 54.7996 110.2396 
L 37.030059 107.472015 
L 51.552 118.08 
L 37.030059 128.687985 
L 54.7996 125.9204 
L 52.032015 143.689941 
L 62.64 129.168 
L 73.247985 143.689941 
L 70.4804 125.9204 
L 88.249941 128.687985 
L 73.728 118.08 
L 88.249941 107.472015 
z
" clip-path="url(#pe40512fd88)" style="fill: none; stroke: #000000; stroke-width: 2.2; stroke-linejoin: miter"/>
   </g>
   <g id="patch_22">
    <path d="M 88.249941 52.032015 
L 70.4804 54.7996 
L 73.247985 37.030059 
L 62.64 51.552 
L 52.032015 37.030059 
L 54.7996 54.7996 
L 37.030059 52.032015 
L 51.552 62.64 
L 37.030059 73.247985 
L 54.7996 70.4804 
L 52.032015 88.249941 
L 62.64 73.728 
L 73.247985 88.249941 
L 70.4804 70.4804 
L 88.249941 73.247985 
L 73.728 62.64 
L 88.249941 52.032015 
z
" clip-path="url(#pe40512fd88)" style="fill: none; stroke: #000000; stroke-width: 2.2; stroke-linejoin: miter"/>
   </g>
   <g id="patch_23">
    <path d="M 72.789246 -1 
L 70.4804 -0.6404 
L 70.536407 -1 
M 54.743593 -1 
L 54.7996 -0.6404 
L 52.490754 -1 
M 40.326502 -1 
L 51.552 7.2 
L 37.030059 17.807985 
L 54.7996 15.0404 
L 52.032015 32.809941 
L 62.64 18.288 
L 73.247985 32.809941 
L 70.4804 15.0404 
L 88.249941 17.807985 
L 73.728 7.2 
L 84.953498 -1 
" clip-path="url(#pe40512fd88)" style="fill: none; stroke: #000000; stroke-width: 2.2; stroke-linejoin: miter"/>
   </g>
   <g id="patch_24">
    <path d="M 143.689941 550.992015 
L 125.9204 553.7596 
L 128.687985 535.990059 
L 118.08 550.512 
L 107.472015 535.990059 
L 110.2396 553.7596 
L 92.470059 550.992015 
L 106.992 561.6 
L 95.766502 569.8 
M 107.930754 569.8 
L 110.2396 569.4404 
L 110.183593 569.8 
M 125.976407 569.8 
L 125.9204 569.4404 
L 128.229246 569.8 
M 140.393498 569.8 
L 129.168 561.6 
L 143.689941 550.992015 
" clip-path="url(#pe40512fd88)" style="fill: none; stroke: #000000; stroke-width: 2.2; stroke-linejoin: miter"/>
   </g>
   <g id="patch_25">
    <path d="M 143.689941 495.552015 
L 125.9204 498.3196 
L 128.687985 480.550059 
L 118.08 495.072 
L 107.472015 480.550059 
L 110.2396 498.3196 
L 92.470059 495.552015 
L 106.992 506.16 
L 92.470059 516.767985 
L 110.2396 514.0004 
L 107.472015 531.769941 
L 118.08 517.248 
L 128.687985 531.769941 
L 125.9204 514.0004 
L 143.689941 516.767985 
L 129.168 506.16 
L 143.689941 495.552015 
z
" clip-path="url(#pe40512fd88)" style="fill: none; stroke: #000000; stroke-width: 2.2; stroke-linejoin: miter"/>
   </g>
   <g id="patch_26">
    <path d="M 143.689941 440.112015 
L 125.9204 442.8796 
L 128.687985 425.110059 
L 118.08 439.632 
L 107.472015 425.110059 
L 110.2396 442.8796 
L 92.470059 440.112015 
L 106.992 450.72 
L 92.470059 461.327985 
L 110.2396 458.5604 
L 107.472015 476.329941 
L 118.08 461.808 
L 128.687985 476.329941 
L 125.9204 458.5604 
L 143.689941 461.327985 
L 129.168 450.72 
L 143.689941 440.112015 
z
" clip-path="url(#pe40512fd88)" style="fill: none; stroke: #000000; stroke-width: 2.2; stroke-linejoin: miter"/>
   </g>
   <g id="patch_27">
    <path d="M 143.689941 384.672015 
L 125.9204 387.4396 
L 128.687985 369.670059 
L 118.08 384.192 
L 107.472015 369.670059 
L 110.2396 387.4396 
L 92.470059 384.672015 
L 106.992 395.28 
L 92.470059 405.887985 
L 110.2396 403.1204 
L 107.472015 420.889941 
L 118.08 406.368 
L 128.687985 420.889941 
L 125.9204 403.1204 
L 143.689941 405.887985 
L 129.168 395.28 
L 143.689941 384.672015 
z
" clip-path="url(#pe40512fd88)" style="fill: none; stroke: #000000; stroke-width: 2.2; stroke-linejoin: miter"/>
   </g>
   <g id="patch_28">
    <path d="M 143.689941 329.232015 
L 125.9204 331.9996 
L 128.687985 314.230059 
L 118.08 328.752 
L 107.472015 314.230059 
L 110.2396 331.9996 
L 92.470059 329.232015 
L 106.992 339.84 
L 92.470059 350.447985 
L 110.2396 347.6804 
L 107.472015 365.449941 
L 118.08 350.928 
L 128.687985 365.449941 
L 125.9204 347.6804 
L 143.689941 350.447985 
L 129.168 339.84 
L 143.689941 329.232015 
z
" clip-path="url(#pe40512fd88)" style="fill: none; stroke: #000000; stroke-width: 2.2; stroke-linejoin: miter"/>
   </g>
   <g id="patch_29">
    <path d="M 143.689941 273.792015 
L 125.9204 276.5596 
L 128.687985 258.790059 
L 118.08 273.312 
L 107.472015 258.790059 
L 110.2396 276.5596 
L 92.470059 273.792015 
L 106.992 284.4 
L 92.470059 295.007985 
L 110.2396 292.2404 
L 107.472015 310.009941 
L 118.08 295.488 
L 128.687985 310.009941 
L 125.9204 292.2404 
L 143.689941 295.007985 
L 129.168 284.4 
L 143.689941 273.792015 
z
" clip-path="url(#pe40512fd88)" style="fill: none; stroke: #000000; stroke-width: 2.2; stroke-linejoin: miter"/>
   </g>
   <g id="patch_30">
    <path d="M 143.689941 218.352015 
L 125.9204 221.1196 
L 128.687985 203.350059 
L 118.08 217.872 
L 107.472015 203.350059 
L 110.2396 221.1196 
L 92.470059 218.352015 
L 106.992 228.96 
L 92.470059 239.567985 
L 110.2396 236.8004 
L 107.472015 254.569941 
L 118.08 240.048 
L 128.687985 254.569941 
L 125.9204 236.8004 
L 143.689941 239.567985 
L 129.168 228.96 
L 143.689941 218.352015 
z
" clip-path="url(#pe40512fd88)" style="fill: none; stroke: #000000; stroke-width: 2.2; stroke-linejoin: miter"/>
   </g>
   <g id="patch_31">
    <path d="M 143.689941 162.912015 
L 125.9204 165.6796 
L 128.687985 147.910059 
L 118.08 162.432 
L 107.472015 147.910059 
L 110.2396 165.6796 
L 92.470059 162.912015 
L 106.992 173.52 
L 92.470059 184.127985 
L 110.2396 181.3604 
L 107.472015 199.129941 
L 118.08 184.608 
L 128.687985 199.129941 
L 125.9204 181.3604 
L 143.689941 184.127985 
L 129.168 173.52 
L 143.689941 162.912015 
z
" clip-path="url(#pe40512fd88)" style="fill: none; stroke: #000000; stroke-width: 2.2; stroke-linejoin: miter"/>
   </g>
   <g id="patch_32">
    <path d="M 143.689941 107.472015 
L 125.9204 110.2396 
L 128.687985 92.470059 
L 118.08 106.992 
L 107.472015 92.470059 
L 110.2396 110.2396 
L 92.470059 107.472015 
L 106.992 118.08 
L 92.470059 128.687985 
L 110.2396 125.9204 
L 107.472015 143.689941 
L 118.08 129.168 
L 128.687985 143.689941 
L 125.9204 125.9204 
L 143.689941 128.687985 
L 129.168 118.08 
L 143.689941 107.472015 
z
" clip-path="url(#pe40512fd88)" style="fill: none; stroke: #000000; stroke-width: 2.2; stroke-linejoin: miter"/>
   </g>
   <g id="patch_33">
    <path d="M 143.689941 52.032015 
L 125.9204 54.7996 
L 128.687985 37.030059 
L 118.08 51.552 
L 107.472015 37.030059 
L 110.2396 54.7996 
L 92.470059 52.032015 
L 106.992 62.64 
L 92.470059 73.247985 
L 110.2396 70.4804 
L 107.472015 88.249941 
L 118.08 73.728 
L 128.687985 88.249941 
L 125.9204 70.4804 
L 143.689941 73.247985 
L 129.168 62.64 
L 143.689941 52.032015 
z
" clip-path="url(#pe40512fd88)" style="fill: none; stroke: #000000; stroke-width: 2.2; stroke-linejoin: miter"/>
   </g>
   <g id="patch_34">
    <path d="M 128.229246 -1 
L 125.9204 -0.6404 
L 125.976407 -1 
M 110.183593 -1 
L 110.2396 -0.6404 
L 107.930754 -1 
M 95.766502 -1 
L 106.992 7.2 
L 92.470059 17.807985 
L 110.2396 15.0404 
L 107.472015 32.809941 
L 118.08 18.288 
L 128.687985 32.809941 
L 125.9204 15.0404 
L 143.689941 17.807985 
L 129.168 7.2 
L 140.393498 -1 
" clip-path="url(#pe40512fd88)" style="fill: none; stroke: #000000; stroke-width: 2.2; stroke-linejoin: miter"/>
   </g>
   <g id="patch_35">
    <path d="M 199.129941 550.992015 
L 181.3604 553.7596 
L 184.127985 535.990059 
L 173.52 550.512 
L 162.912015 535.990059 
L 165.6796 553.7596 
L 147.910059 550.992015 
L 162.432 561.6 
L 151.206502 569.8 
M 163.370754 569.8 
L 165.6796 569.4404 
L 165.623593 569.8 
M 181.416407 569.8 
L 181.3604 569.4404 
L 183.669246 569.8 
M 195.833498 569.8 
L 184.608 561.6 
L 199.129941 550.992015 
" clip-path="url(#pe40512fd88)" style="fill: none; stroke: #000000; stroke-width: 2.2; stroke-linejoin: miter"/>
   </g>
   <g id="patch_36">
    <path d="M 199.129941 495.552015 
L 181.3604 498.3196 
L 184.127985 480.550059 
L 173.52 495.072 
L 162.912015 480.550059 
L 165.6796 498.3196 
L 147.910059 495.552015 
L 162.432 506.16 
L 147.910059 516.767985 
L 165.6796 514.0004 
L 162.912015 531.769941 
L 173.52 517.248 
L 184.127985 531.769941 
L 181.3604 514.0004 
L 199.129941 516.767985 
L 184.608 506.16 
L 199.129941 495.552015 
z
" clip-path="url(#pe40512fd88)" style="fill: none; stroke: #000000; stroke-width: 2.2; stroke-linejoin: miter"/>
   </g>
   <g id="patch_37">
    <path d="M 199.129941 440.112015 
L 181.3604 442.8796 
L 184.127985 425.110059 
L 173.52 439.632 
L 162.912015 425.110059 
L 165.6796 442.8796 
L 147.910059 440.112015 
L 162.432 450.72 
L 147.910059 461.327985 
L 165.6796 458.5604 
L 162.912015 476.329941 
L 173.52 461.808 
L 184.127985 476.329941 
L 181.3604 458.5604 
L 199.129941 461.327985 
L 184.608 450.72 
L 199.129941 440.112015 
z
" clip-path="url(#pe40512fd88)" style="fill: none; stroke: #000000; stroke-width: 2.2; stroke-linejoin: miter"/>
   </g>
   <g id="patch_38">
    <path d="M 199.129941 384.672015 
L 181.3604 387.4396 
L 184.127985 369.670059 
L 173.52 384.192 
L 162.912015 369.670059 
L 165.6796 387.4396 
L 147.910059 384.672015 
L 162.432 395.28 
L 147.910059 405.887985 
L 165.6796 403.1204 
L 162.912015 420.889941 
L 173.52 406.368 
L 184.127985 420.889941 
L 181.3604 403.1204 
L 199.129941 405.887985 
L 184.608 395.28 
L 199.129941 384.672015 
z
" clip-path="url(#pe40512fd88)" style="fill: none; stroke: #000000; stroke-width: 2.2; stroke-linejoin: miter"/>
   </g>
   <g id="patch_39">
    <path d="M 199.129941 329.232015 
L 181.3604 331.9996 
L 184.127985 314.230059 
L 173.52 328.752 
L 162.912015 314.230059 
L 165.6796 331.9996 
L 147.910059 329.232015 
L 162.432 339.84 
L 147.910059 350.447985 
L 165.6796 347.6804 
L 162.912015 365.449941 
L 173.52 350.928 
L 184.127985 365.449941 
L 181.3604 347.6804 
L 199.129941 350.447985 
L 184.608 339.84 
L 199.129941 329.232015 
z
" clip-path="url(#pe40512fd88)" style="fill: none; stroke: #000000; stroke-width: 2.2; stroke-linejoin: miter"/>
   </g>
   <g id="patch_40">
    <path d="M 199.129941 273.792015 
L 181.3604 276.5596 
L 184.127985 258.790059 
L 173.52 273.312 
L 162.912015 258.790059 
L 165.6796 276.5596 
L 147.910059 273.792015 
L 162.432 284.4 
L 147.910059 295.007985 
L 165.6796 292.2404 
L 162.912015 310.009941 
L 173.52 295.488 
L 184.127985 310.009941 
L 181.3604 292.2404 
L 199.129941 295.007985 
L 184.608 284.4 
L 199.129941 273.792015 
z
" clip-path="url(#pe40512fd88)" style="fill: none; stroke: #000000; stroke-width: 2.2; stroke-linejoin: miter"/>
   </g>
   <g id="patch_41">
    <path d="M 199.129941 218.352015 
L 181.3604 221.1196 
L 184.127985 203.350059 
L 173.52 217.872 
L 162.912015 203.350059 
L 165.6796 221.1196 
L 147.910059 218.352015 
L 162.432 228.96 
L 147.910059 239.567985 
L 165.6796 236.8004 
L 162.912015 254.569941 
L 173.52 240.048 
L 184.127985 254.569941 
L 181.3604 236.8004 
L 199.129941 239.567985 
L 184.608 228.96 
L 199.129941 218.352015 
z
" clip-path="url(#pe40512fd88)" style="fill: none; stroke: #000000; stroke-width: 2.2; stroke-linejoin: miter"/>
   </g>
   <g id="patch_42">
    <path d="M 199.129941 162.912015 
L 181.3604 165.6796 
L 184.127985 147.910059 
L 173.52 162.432 
L 162.912015 147.910059 
L 165.6796 165.6796 
L 147.910059 162.912015 
L 162.432 173.52 
L 147.910059 184.127985 
L 165.6796 181.3604 
L 162.912015 199.129941 
L 173.52 184.608 
L 184.127985 199.129941 
L 181.3604 181.3604 
L 199.129941 184.127985 
L 184.608 173.52 
L 199.129941 162.912015 
z
" clip-path="url(#pe40512fd88)" style="fill: none; stroke: #000000; stroke-width: 2.2; stroke-linejoin: miter"/>
   </g>
   <g id="patch_43">
    <path d="M 199.129941 107.472015 
L 181.3604 110.2396 
L 184.127985 92.470059 
L 173.52 106.992 
L 162.912015 92.470059 
L 165.6796 110.2396 
L 147.910059 107.472015 
L 162.432 118.08 
L 147.910059 128.687985 
L 165.6796 125.9204 
L 162.912015 143.689941 
L 173.52 129.168 
L 184.127985 143.689941 
L 181.3604 125.9204 
L 199.129941 128.687985 
L 184.608 118.08 
L 199.129941 107.472015 
z
" clip-path="url(#pe40512fd88)" style="fill: none; stroke: #000000; stroke-width: 2.2; stroke-linejoin: miter"/>
   </g>
   <g id="patch_44">
    <path d="M 199.129941 52.032015 
L 181.3604 54.7996 
L 184.127985 37.030059 
L 173.52 51.552 
L 162.912015 37.030059 
L 165.6796 54.7996 
L 147.910059 52.032015 
L 162.432 62.64 
L 147.910059 73.247985 
L 165.6796 70.4804 
L 162.912015 88.249941 
L 173.52 73.728 
L 184.127985 88.249941 
L 181.3604 70.4804 
L 199.129941 73.247985 
L 184.608 62.64 
L 199.129941 52.032015 
z
" clip-path="url(#pe40512fd88)" style="fill: none; stroke: #000000; stroke-width: 2.2; stroke-linejoin: miter"/>
   </g>
   <g id="patch_45">
    <path d="M 183.669246 -1 
L 181.3604 -0.6404 
L 181.416407 -1 
M 165.623593 -1 
L 165.6796 -0.6404 
L 163.370754 -1 
M 151.206502 -1 
L 162.432 7.2 
L 147.910059 17.807985 
L 165.6796 15.0404 
L 162.912015 32.809941 
L 173.52 18.288 
L 184.127985 32.809941 
L 181.3604 15.0404 
L 199.129941 17.807985 
L 184.608 7.2 
L 195.833498 -1 
" clip-path="url(#pe40512fd88)" style="fill: none; stroke: #000000; stroke-width: 2.2; stroke-linejoin: miter"/>
   </g>
   <g id="patch_46">
    <path d="M 254.569941 550.992015 
L 236.8004 553.7596 
L 239.567985 535.990059 
L 228.96 550.512 
L 218.352015 535.990059 
L 221.1196 553.7596 
L 203.350059 550.992015 
L 217.872 561.6 
L 206.646502 569.8 
M 218.810754 569.8 
L 221.1196 569.4404 
L 221.063593 569.8 
M 236.856407 569.8 
L 236.8004 569.4404 
L 239.109246 569.8 
M 251.273498 569.8 
L 240.048 561.6 
L 254.569941 550.992015 
" clip-path="url(#pe40512fd88)" style="fill: none; stroke: #000000; stroke-width: 2.2; stroke-linejoin: miter"/>
   </g>
   <g id="patch_47">
    <path d="M 254.569941 495.552015 
L 236.8004 498.3196 
L 239.567985 480.550059 
L 228.96 495.072 
L 218.352015 480.550059 
L 221.1196 498.3196 
L 203.350059 495.552015 
L 217.872 506.16 
L 203.350059 516.767985 
L 221.1196 514.0004 
L 218.352015 531.769941 
L 228.96 517.248 
L 239.567985 531.769941 
L 236.8004 514.0004 
L 254.569941 516.767985 
L 240.048 506.16 
L 254.569941 495.552015 
z
" clip-path="url(#pe40512fd88)" style="fill: none; stroke: #000000; stroke-width: 2.2; stroke-linejoin: miter"/>
   </g>
   <g id="patch_48">
    <path d="M 254.569941 440.112015 
L 236.8004 442.8796 
L 239.567985 425.110059 
L 228.96 439.632 
L 218.352015 425.110059 
L 221.1196 442.8796 
L 203.350059 440.112015 
L 217.872 450.72 
L 203.350059 461.327985 
L 221.1196 458.5604 
L 218.352015 476.329941 
L 228.96 461.808 
L 239.567985 476.329941 
L 236.8004 458.5604 
L 254.569941 461.327985 
L 240.048 450.72 
L 254.569941 440.112015 
z
" clip-path="url(#pe40512fd88)" style="fill: none; stroke: #000000; stroke-width: 2.2; stroke-linejoin: miter"/>
   </g>
   <g id="patch_49">
    <path d="M 254.569941 384.672015 
L 236.8004 387.4396 
L 239.567985 369.670059 
L 228.96 384.192 
L 218.352015 369.670059 
L 221.1196 387.4396 
L 203.350059 384.672015 
L 217.872 395.28 
L 203.350059 405.887985 
L 221.1196 403.1204 
L 218.352015 420.889941 
L 228.96 406.368 
L 239.567985 420.889941 
L 236.8004 403.1204 
L 254.569941 405.887985 
L 240.048 395.28 
L 254.569941 384.672015 
z
" clip-path="url(#pe40512fd88)" style="fill: none; stroke: #000000; stroke-width: 2.2; stroke-linejoin: miter"/>
   </g>
   <g id="patch_50">
    <path d="M 254.569941 329.232015 
L 236.8004 331.9996 
L 239.567985 314.230059 
L 228.96 328.752 
L 218.352015 314.230059 
L 221.1196 331.9996 
L 203.350059 329.232015 
L 217.872 339.84 
L 203.350059 350.447985 
L 221.1196 347.6804 
L 218.352015 365.449941 
L 228.96 350.928 
L 239.567985 365.449941 
L 236.8004 347.6804 
L 254.569941 350.447985 
L 240.048 339.84 
L 254.569941 329.232015 
z
" clip-path="url(#pe40512fd88)" style="fill: none; stroke: #000000; stroke-width: 2.2; stroke-linejoin: miter"/>
   </g>
   <g id="patch_51">
    <path d="M 254.569941 273.792015 
L 236.8004 276.5596 
L 239.567985 258.790059 
L 228.96 273.312 
L 218.352015 258.790059 
L 221.1196 276.5596 
L 203.350059 273.792015 
L 217.872 284.4 
L 203.350059 295.007985 
L 221.1196 292.2404 
L 218.352015 310.009941 
L 228.96 295.488 
L 239.567985 310.009941 
L 236.8004 292.2404 
L 254.569941 295.007985 
L 240.048 284.4 
L 254.569941 273.792015 
z
" clip-path="url(#pe40512fd88)" style="fill: none; stroke: #000000; stroke-width: 2.2; stroke-linejoin: miter"/>
   </g>
   <g id="patch_52">
    <path d="M 254.569941 218.352015 
L 236.8004 221.1196 
L 239.567985 203.350059 
L 228.96 217.872 
L 218.352015 203.350059 
L 221.1196 221.1196 
L 203.350059 218.352015 
L 217.872 228.96 
L 203.350059 239.567985 
L 221.1196 236.8004 
L 218.352015 254.569941 
L 228.96 240.048 
L 239.567985 254.569941 
L 236.8004 236.8004 
L 254.569941 239.567985 
L 240.048 228.96 
L 254.569941 218.352015 
z
" clip-path="url(#pe40512fd88)" style="fill: none; stroke: #000000; stroke-width: 2.2; stroke-linejoin: miter"/>
   </g>
   <g id="patch_53">
    <path d="M 254.569941 162.912015 
L 236.8004 165.6796 
L 239.567985 147.910059 
L 228.96 162.432 
L 218.352015 147.910059 
L 221.1196 165.6796 
L 203.350059 162.912015 
L 217.872 173.52 
L 203.350059 184.127985 
L 221.1196 181.3604 
L 218.352015 199.129941 
L 228.96 184.608 
L 239.567985 199.129941 
L 236.8004 181.3604 
L 254.569941 184.127985 
L 240.048 173.52 
L 254.569941 162.912015 
z
" clip-path="url(#pe40512fd88)" style="fill: none; stroke: #000000; stroke-width: 2.2; stroke-linejoin: miter"/>
   </g>
   <g id="patch_54">
    <path d="M 254.569941 107.472015 
L 236.8004 110.2396 
L 239.567985 92.470059 
L 228.96 106.992 
L 218.352015 92.470059 
L 221.1196 110.2396 
L 203.350059 107.472015 
L 217.872 118.08 
L 203.350059 128.687985 
L 221.1196 125.9204 
L 218.352015 143.689941 
L 228.96 129.168 
L 239.567985 143.689941 
L 236.8004 125.9204 
L 254.569941 128.687985 
L 240.048 118.08 
L 254.569941 107.472015 
z
" clip-path="url(#pe40512fd88)" style="fill: none; stroke: #000000; stroke-width: 2.2; stroke-linejoin: miter"/>
   </g>
   <g id="patch_55">
    <path d="M 254.569941 52.032015 
L 236.8004 54.7996 
L 239.567985 37.030059 
L 228.96 51.552 
L 218.352015 37.030059 
L 221.1196 54.7996 
L 203.350059 52.032015 
L 217.872 62.64 
L 203.350059 73.247985 
L 221.1196 70.4804 
L 218.352015 88.249941 
L 228.96 73.728 
L 239.567985 88.249941 
L 236.8004 70.4804 
L 254.569941 73.247985 
L 240.048 62.64 
L 254.569941 52.032015 
z
" clip-path="url(#pe40512fd88)" style="fill: none; stroke: #000000; stroke-width: 2.2; stroke-linejoin: miter"/>
   </g>
   <g id="patch_56">
    <path d="M 239.109246 -1 
L 236.8004 -0.6404 
L 236.856407 -1 
M 221.063593 -1 
L 221.1196 -0.6404 
L 218.810754 -1 
M 206.646502 -1 
L 217.872 7.2 
L 203.350059 17.807985 
L 221.1196 15.0404 
L 218.352015 32.809941 
L 228.96 18.288 
L 239.567985 32.809941 
L 236.8004 15.0404 
L 254.569941 17.807985 
L 240.048 7.2 
L 251.273498 -1 
" clip-path="url(#pe40512fd88)" style="fill: none; stroke: #000000; stroke-width: 2.2; stroke-linejoin: miter"/>
   </g>
   <g id="patch_57">
    <path d="M 310.009941 550.992015 
L 292.2404 553.7596 
L 295.007985 535.990059 
L 284.4 550.512 
L 273.792015 535.990059 
L 276.5596 553.7596 
L 258.790059 550.992015 
L 273.312 561.6 
L 262.086502 569.8 
M 274.250754 569.8 
L 276.5596 569.4404 
L 276.503593 569.8 
M 292.296407 569.8 
L 292.2404 569.4404 
L 294.549246 569.8 
M 306.713498 569.8 
L 295.488 561.6 
L 310.009941 550.992015 
" clip-path="url(#pe40512fd88)" style="fill: none; stroke: #000000; stroke-width: 2.2; stroke-linejoin: miter"/>
   </g>
   <g id="patch_58">
    <path d="M 310.009941 495.552015 
L 292.2404 498.3196 
L 295.007985 480.550059 
L 284.4 495.072 
L 273.792015 480.550059 
L 276.5596 498.3196 
L 258.790059 495.552015 
L 273.312 506.16 
L 258.790059 516.767985 
L 276.5596 514.0004 
L 273.792015 531.769941 
L 284.4 517.248 
L 295.007985 531.769941 
L 292.2404 514.0004 
L 310.009941 516.767985 
L 295.488 506.16 
L 310.009941 495.552015 
z
" clip-path="url(#pe40512fd88)" style="fill: none; stroke: #000000; stroke-width: 2.2; stroke-linejoin: miter"/>
   </g>
   <g id="patch_59">
    <path d="M 310.009941 440.112015 
L 292.2404 442.8796 
L 295.007985 425.110059 
L 284.4 439.632 
L 273.792015 425.110059 
L 276.5596 442.8796 
L 258.790059 440.112015 
L 273.312 450.72 
L 258.790059 461.327985 
L 276.5596 458.5604 
L 273.792015 476.329941 
L 284.4 461.808 
L 295.007985 476.329941 
L 292.2404 458.5604 
L 310.009941 461.327985 
L 295.488 450.72 
L 310.009941 440.112015 
z
" clip-path="url(#pe40512fd88)" style="fill: none; stroke: #000000; stroke-width: 2.2; stroke-linejoin: miter"/>
   </g>
   <g id="patch_60">
    <path d="M 310.009941 384.672015 
L 292.2404 387.4396 
L 295.007985 369.670059 
L 284.4 384.192 
L 273.792015 369.670059 
L 276.5596 387.4396 
L 258.790059 384.672015 
L 273.312 395.28 
L 258.790059 405.887985 
L 276.5596 403.1204 
L 273.792015 420.889941 
L 284.4 406.368 
L 295.007985 420.889941 
L 292.2404 403.1204 
L 310.009941 405.887985 
L 295.488 395.28 
L 310.009941 384.672015 
z
" clip-path="url(#pe40512fd88)" style="fill: none; stroke: #000000; stroke-width: 2.2; stroke-linejoin: miter"/>
   </g>
   <g id="patch_61">
    <path d="M 310.009941 329.232015 
L 292.2404 331.9996 
L 295.007985 314.230059 
L 284.4 328.752 
L 273.792015 314.230059 
L 276.5596 331.9996 
L 258.790059 329.232015 
L 273.312 339.84 
L 258.790059 350.447985 
L 276.5596 347.6804 
L 273.792015 365.449941 
L 284.4 350.928 
L 295.007985 365.449941 
L 292.2404 347.6804 
L 310.009941 350.447985 
L 295.488 339.84 
L 310.009941 329.232015 
z
" clip-path="url(#pe40512fd88)" style="fill: none; stroke: #000000; stroke-width: 2.2; stroke-linejoin: miter"/>
   </g>
   <g id="patch_62">
    <path d="M 310.009941 273.792015 
L 292.2404 276.5596 
L 295.007985 258.790059 
L 284.4 273.312 
L 273.792015 258.790059 
L 276.5596 276.5596 
L 258.790059 273.792015 
L 273.312 284.4 
L 258.790059 295.007985 
L 276.5596 292.2404 
L 273.792015 310.009941 
L 284.4 295.488 
L 295.007985 310.009941 
L 292.2404 292.2404 
L 310.009941 295.007985 
L 295.488 284.4 
L 310.009941 273.792015 
z
" clip-path="url(#pe40512fd88)" style="fill: none; stroke: #000000; stroke-width: 2.2; stroke-linejoin: miter"/>
   </g>
   <g id="patch_63">
    <path d="M 310.009941 218.352015 
L 292.2404 221.1196 
L 295.007985 203.350059 
L 284.4 217.872 
L 273.792015 203.350059 
L 276.5596 221.1196 
L 258.790059 218.352015 
L 273.312 228.96 
L 258.790059 239.567985 
L 276.5596 236.8004 
L 273.792015 254.569941 
L 284.4 240.048 
L 295.007985 254.569941 
L 292.2404 236.8004 
L 310.009941 239.567985 
L 295.488 228.96 
L 310.009941 218.352015 
z
" clip-path="url(#pe40512fd88)" style="fill: none; stroke: #000000; stroke-width: 2.2; stroke-linejoin: miter"/>
   </g>
   <g id="patch_64">
    <path d="M 310.009941 162.912015 
L 292.2404 165.6796 
L 295.007985 147.910059 
L 284.4 162.432 
L 273.792015 147.910059 
L 276.5596 165.6796 
L 258.790059 162.912015 
L 273.312 173.52 
L 258.790059 184.127985 
L 276.5596 181.3604 
L 273.792015 199.129941 
L 284.4 184.608 
L 295.007985 199.129941 
L 292.2404 181.3604 
L 310.009941 184.127985 
L 295.488 173.52 
L 310.009941 162.912015 
z
" clip-path="url(#pe40512fd88)" style="fill: none; stroke: #000000; stroke-width: 2.2; stroke-linejoin: miter"/>
   </g>
   <g id="patch_65">
    <path d="M 310.009941 107.472015 
L 292.2404 110.2396 
L 295.007985 92.470059 
L 284.4 106.992 
L 273.792015 92.470059 
L 276.5596 110.2396 
L 258.790059 107.472015 
L 273.312 118.08 
L 258.790059 128.687985 
L 276.5596 125.9204 
L 273.792015 143.689941 
L 284.4 129.168 
L 295.007985 143.689941 
L 292.2404 125.9204 
L 310.009941 128.687985 
L 295.488 118.08 
L 310.009941 107.472015 
z
" clip-path="url(#pe40512fd88)" style="fill: none; stroke: #000000; stroke-width: 2.2; stroke-linejoin: miter"/>
   </g>
   <g id="patch_66">
    <path d="M 310.009941 52.032015 
L 292.2404 54.7996 
L 295.007985 37.030059 
L 284.4 51.552 
L 273.792015 37.030059 
L 276.5596 54.7996 
L 258.790059 52.032015 
L 273.312 62.64 
L 258.790059 73.247985 
L 276.5596 70.4804 
L 273.792015 88.249941 
L 284.4 73.728 
L 295.007985 88.249941 
L 292.2404 70.4804 
L 310.009941 73.247985 
L 295.488 62.64 
L 310.009941 52.032015 
z
" clip-path="url(#pe40512fd88)" style="fill: none; stroke: #000000; stroke-width: 2.2; stroke-linejoin: miter"/>
   </g>
   <g id="patch_67">
    <path d="M 294.549246 -1 
L 292.2404 -0.6404 
L 292.296407 -1 
M 276.503593 -1 
L 276.5596 -0.6404 
L 274.250754 -1 
M 262.086502 -1 
L 273.312 7.2 
L 258.790059 17.807985 
L 276.5596 15.0404 
L 273.792015 32.809941 
L 284.4 18.288 
L 295.007985 32.809941 
L 292.2404 15.0404 
L 310.009941 17.807985 
L 295.488 7.2 
L 306.713498 -1 
" clip-path="url(#pe40512fd88)" style="fill: none; stroke: #000000; stroke-width: 2.2; stroke-linejoin: miter"/>
   </g>
   <g id="patch_68">
    <path d="M 348.04 553.703593 
L 347.6804 553.7596 
L 348.04 551.450754 
M 348.04 539.286502 
L 339.84 550.512 
L 329.232015 535.990059 
L 331.9996 553.7596 
L 314.230059 550.992015 
L 328.752 561.6 
L 317.526502 569.8 
M 329.690754 569.8 
L 331.9996 569.4404 
L 331.943593 569.8 
M 347.736407 569.8 
L 347.6804 569.4404 
L 348.04 569.496407 
" clip-path="url(#pe40512fd88)" style="fill: none; stroke: #000000; stroke-width: 2.2; stroke-linejoin: miter"/>
   </g>
   <g id="patch_69">
    <path d="M 348.04 498.263593 
L 347.6804 498.3196 
L 348.04 496.010754 
M 348.04 483.846502 
L 339.84 495.072 
L 329.232015 480.550059 
L 331.9996 498.3196 
L 314.230059 495.552015 
L 328.752 506.16 
L 314.230059 516.767985 
L 331.9996 514.0004 
L 329.232015 531.769941 
L 339.84 517.248 
L 348.04 528.473498 
M 348.04 516.309246 
L 347.6804 514.0004 
L 348.04 514.056407 
" clip-path="url(#pe40512fd88)" style="fill: none; stroke: #000000; stroke-width: 2.2; stroke-linejoin: miter"/>
   </g>
   <g id="patch_70">
    <path d="M 348.04 442.823593 
L 347.6804 442.8796 
L 348.04 440.570754 
M 348.04 428.406502 
L 339.84 439.632 
L 329.232015 425.110059 
L 331.9996 442.8796 
L 314.230059 440.112015 
L 328.752 450.72 
L 314.230059 461.327985 
L 331.9996 458.5604 
L 329.232015 476.329941 
L 339.84 461.808 
L 348.04 473.033498 
M 348.04 460.869246 
L 347.6804 458.5604 
L 348.04 458.616407 
" clip-path="url(#pe40512fd88)" style="fill: none; stroke: #000000; stroke-width: 2.2; stroke-linejoin: miter"/>
   </g>
   <g id="patch_71">
    <path d="M 348.04 387.383593 
L 347.6804 387.4396 
L 348.04 385.130754 
M 348.04 372.966502 
L 339.84 384.192 
L 329.232015 369.670059 
L 331.9996 387.4396 
L 314.230059 384.672015 
L 328.752 395.28 
L 314.230059 405.887985 
L 331.9996 403.1204 
L 329.232015 420.889941 
L 339.84 406.368 
L 348.04 417.593498 
M 348.04 405.429246 
L 347.6804 403.1204 
L 348.04 403.176407 
" clip-path="url(#pe40512fd88)" style="fill: none; stroke: #000000; stroke-width: 2.2; stroke-linejoin: miter"/>
   </g>
   <g id="patch_72">
    <path d="M 348.04 331.943593 
L 347.6804 331.9996 
L 348.04 329.690754 
M 348.04 317.526502 
L 339.84 328.752 
L 329.232015 314.230059 
L 331.9996 331.9996 
L 314.230059 329.232015 
L 328.752 339.84 
L 314.230059 350.447985 
L 331.9996 347.6804 
L 329.232015 365.449941 
L 339.84 350.928 
L 348.04 362.153498 
M 348.04 349.989246 
L 347.6804 347.6804 
L 348.04 347.736407 
" clip-path="url(#pe40512fd88)" style="fill: none; stroke: #000000; stroke-width: 2.2; stroke-linejoin: miter"/>
   </g>
   <g id="patch_73">
    <path d="M 348.04 276.503593 
L 347.6804 276.5596 
L 348.04 274.250754 
M 348.04 262.086502 
L 339.84 273.312 
L 329.232015 258.790059 
L 331.9996 276.5596 
L 314.230059 273.792015 
L 328.752 284.4 
L 314.230059 295.007985 
L 331.9996 292.2404 
L 329.232015 310.009941 
L 339.84 295.488 
L 348.04 306.713498 
M 348.04 294.549246 
L 347.6804 292.2404 
L 348.04 292.296407 
" clip-path="url(#pe40512fd88)" style="fill: none; stroke: #000000; stroke-width: 2.2; stroke-linejoin: miter"/>
   </g>
   <g id="patch_74">
    <path d="M 348.04 221.063593 
L 347.6804 221.1196 
L 348.04 218.810754 
M 348.04 206.646502 
L 339.84 217.872 
L 329.232015 203.350059 
L 331.9996 221.1196 
L 314.230059 218.352015 
L 328.752 228.96 
L 314.230059 239.567985 
L 331.9996 236.8004 
L 329.232015 254.569941 
L 339.84 240.048 
L 348.04 251.273498 
M 348.04 239.109246 
L 347.6804 236.8004 
L 348.04 236.856407 
" clip-path="url(#pe40512fd88)" style="fill: none; stroke: #000000; stroke-width: 2.2; stroke-linejoin: miter"/>
   </g>
   <g id="patch_75">
    <path d="M 348.04 165.623593 
L 347.6804 165.6796 
L 348.04 163.370754 
M 348.04 151.206502 
L 339.84 162.432 
L 329.232015 147.910059 
L 331.9996 165.6796 
L 314.230059 162.912015 
L 328.752 173.52 
L 314.230059 184.127985 
L 331.9996 181.3604 
L 329.232015 199.129941 
L 339.84 184.608 
L 348.04 195.833498 
M 348.04 183.669246 
L 347.6804 181.3604 
L 348.04 181.416407 
" clip-path="url(#pe40512fd88)" style="fill: none; stroke: #000000; stroke-width: 2.2; stroke-linejoin: miter"/>
   </g>
   <g id="patch_76">
    <path d="M 348.04 110.183593 
L 347.6804 110.2396 
L 348.04 107.930754 
M 348.04 95.766502 
L 339.84 106.992 
L 329.232015 92.470059 
L 331.9996 110.2396 
L 314.230059 107.472015 
L 328.752 118.08 
L 314.230059 128.687985 
L 331.9996 125.9204 
L 329.232015 143.689941 
L 339.84 129.168 
L 348.04 140.393498 
M 348.04 128.229246 
L 347.6804 125.9204 
L 348.04 125.976407 
" clip-path="url(#pe40512fd88)" style="fill: none; stroke: #000000; stroke-width: 2.2; stroke-linejoin: miter"/>
   </g>
   <g id="patch_77">
    <path d="M 348.04 54.743593 
L 347.6804 54.7996 
L 348.04 52.490754 
M 348.04 40.326502 
L 339.84 51.552 
L 329.232015 37.030059 
L 331.9996 54.7996 
L 314.230059 52.032015 
L 328.752 62.64 
L 314.230059 73.247985 
L 331.9996 70.4804 
L 329.232015 88.249941 
L 339.84 73.728 
L 348.04 84.953498 
M 348.04 72.789246 
L 347.6804 70.4804 
L 348.04 70.536407 
" clip-path="url(#pe40512fd88)" style="fill: none; stroke: #000000; stroke-width: 2.2; stroke-linejoin: miter"/>
   </g>
   <g id="patch_78">
    <path d="M 348.04 -0.696407 
L 347.6804 -0.6404 
L 347.736407 -1 
M 331.943593 -1 
L 331.9996 -0.6404 
L 329.690754 -1 
M 317.526502 -1 
L 328.752 7.2 
L 314.230059 17.807985 
L 331.9996 15.0404 
L 329.232015 32.809941 
L 339.84 18.288 
L 348.04 29.513498 
M 348.04 17.349246 
L 347.6804 15.0404 
L 348.04 15.096407 
" clip-path="url(#pe40512fd88)" style="fill: none; stroke: #000000; stroke-width: 2.2; stroke-linejoin: miter"/>
   </g>
   <g id="patch_79">
    <path d="M 23.94344 522.90344 
L 23.94344 544.85656 
L 45.89656 544.85656 
L 45.89656 522.90344 
L 23.94344 522.90344 
z
" clip-path="url(#pe40512fd88)" style="fill: none; stroke: #000000; stroke-width: 1.8; stroke-linejoin: miter"/>
   </g>
   <g id="patch_80">
    <path d="M 23.94344 467.46344 
L 23.94344 489.41656 
L 45.89656 489.41656 
L 45.89656 467.46344 
L 23.94344 467.46344 
z
" clip-path="url(#pe40512fd88)" style="fill: none; stroke: #000000; stroke-width: 1.8; stroke-linejoin: miter"/>
   </g>
   <g id="patch_81">
    <path d="M 23.94344 412.02344 
L 23.94344 433.97656 
L 45.89656 433.97656 
L 45.89656 412.02344 
L 23.94344 412.02344 
z
" clip-path="url(#pe40512fd88)" style="fill: none; stroke: #000000; stroke-width: 1.8; stroke-linejoin: miter"/>
   </g>
   <g id="patch_82">
    <path d="M 23.94344 356.58344 
L 23.94344 378.53656 
L 45.89656 378.53656 
L 45.89656 356.58344 
L 23.94344 356.58344 
z
" clip-path="url(#pe40512fd88)" style="fill: none; stroke: #000000; stroke-width: 1.8; stroke-linejoin: miter"/>
   </g>
   <g id="patch_83">
    <path d="M 23.94344 301.14344 
L 23.94344 323.09656 
L 45.89656 323.09656 
L 45.89656 301.14344 
L 23.94344 301.14344 
z
" clip-path="url(#pe40512fd88)" style="fill: none; stroke: #000000; stroke-width: 1.8; stroke-linejoin: miter"/>
   </g>
   <g id="patch_84">
    <path d="M 23.94344 245.70344 
L 23.94344 267.65656 
L 45.89656 267.65656 
L 45.89656 245.70344 
L 23.94344 245.70344 
z
" clip-path="url(#pe40512fd88)" style="fill: none; stroke: #000000; stroke-width: 1.8; stroke-linejoin: miter"/>
   </g>
   <g id="patch_85">
    <path d="M 23.94344 190.26344 
L 23.94344 212.21656 
L 45.89656 212.21656 
L 45.89656 190.26344 
L 23.94344 190.26344 
z
" clip-path="url(#pe40512fd88)" style="fill: none; stroke: #000000; stroke-width: 1.8; stroke-linejoin: miter"/>
   </g>
   <g id="patch_86">
    <path d="M 23.94344 134.82344 
L 23.94344 156.77656 
L 45.89656 156.77656 
L 45.89656 134.82344 
L 23.94344 134.82344 
z
" clip-path="url(#pe40512fd88)" style="fill: none; stroke: #000000; stroke-width: 1.8; stroke-linejoin: miter"/>
   </g>
   <g id="patch_87">
    <path d="M 23.94344 79.38344 
L 23.94344 101.33656 
L 45.89656 101.33656 
L 45.89656 79.38344 
L 23.94344 79.38344 
z
" clip-path="url(#pe40512fd88)" style="fill: none; stroke: #000000; stroke-width: 1.8; stroke-linejoin: miter"/>
   </g>
   <g id="patch_88">
    <path d="M 23.94344 23.94344 
L 23.94344 45.89656 
L 45.89656 45.89656 
L 45.89656 23.94344 
L 23.94344 23.94344 
z
" clip-path="url(#pe40512fd88)" style="fill: none; stroke: #000000; stroke-width: 1.8; stroke-linejoin: miter"/>
   </g>
   <g id="patch_89">
    <path d="M 79.38344 522.90344 
L 79.38344 544.85656 
L 101.33656 544.85656 
L 101.33656 522.90344 
L 79.38344 522.90344 
z
" clip-path="url(#pe40512fd88)" style="fill: none; stroke: #000000; stroke-width: 1.8; stroke-linejoin: miter"/>
   </g>
   <g id="patch_90">
    <path d="M 79.38344 467.46344 
L 79.38344 489.41656 
L 101.33656 489.41656 
L 101.33656 467.46344 
L 79.38344 467.46344 
z
" clip-path="url(#pe40512fd88)" style="fill: none; stroke: #000000; stroke-width: 1.8; stroke-linejoin: miter"/>
   </g>
   <g id="patch_91">
    <path d="M 79.38344 412.02344 
L 79.38344 433.97656 
L 101.33656 433.97656 
L 101.33656 412.02344 
L 79.38344 412.02344 
z
" clip-path="url(#pe40512fd88)" style="fill: none; stroke: #000000; stroke-width: 1.8; stroke-linejoin: miter"/>
   </g>
   <g id="patch_92">
    <path d="M 79.38344 356.58344 
L 79.38344 378.53656 
L 101.33656 378.53656 
L 101.33656 356.58344 
L 79.38344 356.58344 
z
" clip-path="url(#pe40512fd88)" style="fill: none; stroke: #000000; stroke-width: 1.8; stroke-linejoin: miter"/>
   </g>
   <g id="patch_93">
    <path d="M 79.38344 301.14344 
L 79.38344 323.09656 
L 101.33656 323.09656 
L 101.33656 301.14344 
L 79.38344 301.14344 
z
" clip-path="url(#pe40512fd88)" style="fill: none; stroke: #000000; stroke-width: 1.8; stroke-linejoin: miter"/>
   </g>
   <g id="patch_94">
    <path d="M 79.38344 245.70344 
L 79.38344 267.65656 
L 101.33656 267.65656 
L 101.33656 245.70344 
L 79.38344 245.70344 
z
" clip-path="url(#pe40512fd88)" style="fill: none; stroke: #000000; stroke-width: 1.8; stroke-linejoin: miter"/>
   </g>
   <g id="patch_95">
    <path d="M 79.38344 190.26344 
L 79.38344 212.21656 
L 101.33656 212.21656 
L 101.33656 190.26344 
L 79.38344 190.26344 
z
" clip-path="url(#pe40512fd88)" style="fill: none; stroke: #000000; stroke-width: 1.8; stroke-linejoin: miter"/>
   </g>
   <g id="patch_96">
    <path d="M 79.38344 134.82344 
L 79.38344 156.77656 
L 101.33656 156.77656 
L 101.33656 134.82344 
L 79.38344 134.82344 
z
" clip-path="url(#pe40512fd88)" style="fill: none; stroke: #000000; stroke-width: 1.8; stroke-linejoin: miter"/>
   </g>
   <g id="patch_97">
    <path d="M 79.38344 79.38344 
L 79.38344 101.33656 
L 101.33656 101.33656 
L 101.33656 79.38344 
L 79.38344 79.38344 
z
" clip-path="url(#pe40512fd88)" style="fill: none; stroke: #000000; stroke-width: 1.8; stroke-linejoin: miter"/>
   </g>
   <g id="patch_98">
    <path d="M 79.38344 23.94344 
L 79.38344 45.89656 
L 101.33656 45.89656 
L 101.33656 23.94344 
L 79.38344 23.94344 
z
" clip-path="url(#pe40512fd88)" style="fill: none; stroke: #000000; stroke-width: 1.8; stroke-linejoin: miter"/>
   </g>
   <g id="patch_99">
    <path d="M 134.82344 522.90344 
L 134.82344 544.85656 
L 156.77656 544.85656 
L 156.77656 522.90344 
L 134.82344 522.90344 
z
" clip-path="url(#pe40512fd88)" style="fill: none; stroke: #000000; stroke-width: 1.8; stroke-linejoin: miter"/>
   </g>
   <g id="patch_100">
    <path d="M 134.82344 467.46344 
L 134.82344 489.41656 
L 156.77656 489.41656 
L 156.77656 467.46344 
L 134.82344 467.46344 
z
" clip-path="url(#pe40512fd88)" style="fill: none; stroke: #000000; stroke-width: 1.8; stroke-linejoin: miter"/>
   </g>
   <g id="patch_101">
    <path d="M 134.82344 412.02344 
L 134.82344 433.97656 
L 156.77656 433.97656 
L 156.77656 412.02344 
L 134.82344 412.02344 
z
" clip-path="url(#pe40512fd88)" style="fill: none; stroke: #000000; stroke-width: 1.8; stroke-linejoin: miter"/>
   </g>
   <g id="patch_102">
    <path d="M 134.82344 356.58344 
L 134.82344 378.53656 
L 156.77656 378.53656 
L 156.77656 356.58344 
L 134.82344 356.58344 
z
" clip-path="url(#pe40512fd88)" style="fill: none; stroke: #000000; stroke-width: 1.8; stroke-linejoin: miter"/>
   </g>
   <g id="patch_103">
    <path d="M 134.82344 301.14344 
L 134.82344 323.09656 
L 156.77656 323.09656 
L 156.77656 301.14344 
L 134.82344 301.14344 
z
" clip-path="url(#pe40512fd88)" style="fill: none; stroke: #000000; stroke-width: 1.8; stroke-linejoin: miter"/>
   </g>
   <g id="patch_104">
    <path d="M 134.82344 245.70344 
L 134.82344 267.65656 
L 156.77656 267.65656 
L 156.77656 245.70344 
L 134.82344 245.70344 
z
" clip-path="url(#pe40512fd88)" style="fill: none; stroke: #000000; stroke-width: 1.8; stroke-linejoin: miter"/>
   </g>
   <g id="patch_105">
    <path d="M 134.82344 190.26344 
L 134.82344 212.21656 
L 156.77656 212.21656 
L 156.77656 190.26344 
L 134.82344 190.26344 
z
" clip-path="url(#pe40512fd88)" style="fill: none; stroke: #000000; stroke-width: 1.8; stroke-linejoin: miter"/>
   </g>
   <g id="patch_106">
    <path d="M 134.82344 134.82344 
L 134.82344 156.77656 
L 156.77656 156.77656 
L 156.77656 134.82344 
L 134.82344 134.82344 
z
" clip-path="url(#pe40512fd88)" style="fill: none; stroke: #000000; stroke-width: 1.8; stroke-linejoin: miter"/>
   </g>
   <g id="patch_107">
    <path d="M 134.82344 79.38344 
L 134.82344 101.33656 
L 156.77656 101.33656 
L 156.77656 79.38344 
L 134.82344 79.38344 
z
" clip-path="url(#pe40512fd88)" style="fill: none; stroke: #000000; stroke-width: 1.8; stroke-linejoin: miter"/>
   </g>
   <g id="patch_108">
    <path d="M 134.82344 23.94344 
L 134.82344 45.89656 
L 156.77656 45.89656 
L 156.77656 23.94344 
L 134.82344 23.94344 
z
" clip-path="url(#pe40512fd88)" style="fill: none; stroke: #000000; stroke-width: 1.8; stroke-linejoin: miter"/>
   </g>
   <g id="patch_109">
    <path d="M 190.26344 522.90344 
L 190.26344 544.85656 
L 212.21656 544.85656 
L 212.21656 522.90344 
L 190.26344 522.90344 
z
" clip-path="url(#pe40512fd88)" style="fill: none; stroke: #000000; stroke-width: 1.8; stroke-linejoin: miter"/>
   </g>
   <g id="patch_110">
    <path d="M 190.26344 467.46344 
L 190.26344 489.41656 
L 212.21656 489.41656 
L 212.21656 467.46344 
L 190.26344 467.46344 
z
" clip-path="url(#pe40512fd88)" style="fill: none; stroke: #000000; stroke-width: 1.8; stroke-linejoin: miter"/>
   </g>
   <g id="patch_111">
    <path d="M 190.26344 412.02344 
L 190.26344 433.97656 
L 212.21656 433.97656 
L 212.21656 412.02344 
L 190.26344 412.02344 
z
" clip-path="url(#pe40512fd88)" style="fill: none; stroke: #000000; stroke-width: 1.8; stroke-linejoin: miter"/>
   </g>
   <g id="patch_112">
    <path d="M 190.26344 356.58344 
L 190.26344 378.53656 
L 212.21656 378.53656 
L 212.21656 356.58344 
L 190.26344 356.58344 
z
" clip-path="url(#pe40512fd88)" style="fill: none; stroke: #000000; stroke-width: 1.8; stroke-linejoin: miter"/>
   </g>
   <g id="patch_113">
    <path d="M 190.26344 301.14344 
L 190.26344 323.09656 
L 212.21656 323.09656 
L 212.21656 301.14344 
L 190.26344 301.14344 
z
" clip-path="url(#pe40512fd88)" style="fill: none; stroke: #000000; stroke-width: 1.8; stroke-linejoin: miter"/>
   </g>
   <g id="patch_114">
    <path d="M 190.26344 245.70344 
L 190.26344 267.65656 
L 212.21656 267.65656 
L 212.21656 245.70344 
L 190.26344 245.70344 
z
" clip-path="url(#pe40512fd88)" style="fill: none; stroke: #000000; stroke-width: 1.8; stroke-linejoin: miter"/>
   </g>
   <g id="patch_115">
    <path d="M 190.26344 190.26344 
L 190.26344 212.21656 
L 212.21656 212.21656 
L 212.21656 190.26344 
L 190.26344 190.26344 
z
" clip-path="url(#pe40512fd88)" style="fill: none; stroke: #000000; stroke-width: 1.8; stroke-linejoin: miter"/>
   </g>
   <g id="patch_116">
    <path d="M 190.26344 134.82344 
L 190.26344 156.77656 
L 212.21656 156.77656 
L 212.21656 134.82344 
L 190.26344 134.82344 
z
" clip-path="url(#pe40512fd88)" style="fill: none; stroke: #000000; stroke-width: 1.8; stroke-linejoin: miter"/>
   </g>
   <g id="patch_117">
    <path d="M 190.26344 79.38344 
L 190.26344 101.33656 
L 212.21656 101.33656 
L 212.21656 79.38344 
L 190.26344 79.38344 
z
" clip-path="url(#pe40512fd88)" style="fill: none; stroke: #000000; stroke-width: 1.8; stroke-linejoin: miter"/>
   </g>
   <g id="patch_118">
    <path d="M 190.26344 23.94344 
L 190.26344 45.89656 
L 212.21656 45.89656 
L 212.21656 23.94344 
L 190.26344 23.94344 
z
" clip-path="url(#pe40512fd88)" style="fill: none; stroke: #000000; stroke-width: 1.8; stroke-linejoin: miter"/>
   </g>
   <g id="patch_119">
    <path d="M 245.70344 522.90344 
L 245.70344 544.85656 
L 267.65656 544.85656 
L 267.65656 522.90344 
L 245.70344 522.90344 
z
" clip-path="url(#pe40512fd88)" style="fill: none; stroke: #000000; stroke-width: 1.8; stroke-linejoin: miter"/>
   </g>
   <g id="patch_120">
    <path d="M 245.70344 467.46344 
L 245.70344 489.41656 
L 267.65656 489.41656 
L 267.65656 467.46344 
L 245.70344 467.46344 
z
" clip-path="url(#pe40512fd88)" style="fill: none; stroke: #000000; stroke-width: 1.8; stroke-linejoin: miter"/>
   </g>
   <g id="patch_121">
    <path d="M 245.70344 412.02344 
L 245.70344 433.97656 
L 267.65656 433.97656 
L 267.65656 412.02344 
L 245.70344 412.02344 
z
" clip-path="url(#pe40512fd88)" style="fill: none; stroke: #000000; stroke-width: 1.8; stroke-linejoin: miter"/>
   </g>
   <g id="patch_122">
    <path d="M 245.70344 356.58344 
L 245.70344 378.53656 
L 267.65656 378.53656 
L 267.65656 356.58344 
L 245.70344 356.58344 
z
" clip-path="url(#pe40512fd88)" style="fill: none; stroke: #000000; stroke-width: 1.8; stroke-linejoin: miter"/>
   </g>
   <g id="patch_123">
    <path d="M 245.70344 301.14344 
L 245.70344 323.09656 
L 267.65656 323.09656 
L 267.65656 301.14344 
L 245.70344 301.14344 
z
" clip-path="url(#pe40512fd88)" style="fill: none; stroke: #000000; stroke-width: 1.8; stroke-linejoin: miter"/>
   </g>
   <g id="patch_124">
    <path d="M 245.70344 245.70344 
L 245.70344 267.65656 
L 267.65656 267.65656 
L 267.65656 245.70344 
L 245.70344 245.70344 
z
" clip-path="url(#pe40512fd88)" style="fill: none; stroke: #000000; stroke-width: 1.8; stroke-linejoin: miter"/>
   </g>
   <g id="patch_125">
    <path d="M 245.70344 190.26344 
L 245.70344 212.21656 
L 267.65656 212.21656 
L 267.65656 190.26344 
L 245.70344 190.26344 
z
" clip-path="url(#pe40512fd88)" style="fill: none; stroke: #000000; stroke-width: 1.8; stroke-linejoin: miter"/>
   </g>
   <g id="patch_126">
    <path d="M 245.70344 134.82344 
L 245.70344 156.77656 
L 267.65656 156.77656 
L 267.65656 134.82344 
L 245.70344 134.82344 
z
" clip-path="url(#pe40512fd88)" style="fill: none; stroke: #000000; stroke-width: 1.8; stroke-linejoin: miter"/>
   </g>
   <g id="patch_127">
    <path d="M 245.70344 79.38344 
L 245.70344 101.33656 
L 267.65656 101.33656 
L 267.65656 79.38344 
L 245.70344 79.38344 
z
" clip-path="url(#pe40512fd88)" style="fill: none; stroke: #000000; stroke-width: 1.8; stroke-linejoin: miter"/>
   </g>
   <g id="patch_128">
    <path d="M 245.70344 23.94344 
L 245.70344 45.89656 
L 267.65656 45.89656 
L 267.65656 23.94344 
L 245.70344 23.94344 
z
" clip-path="url(#pe40512fd88)" style="fill: none; stroke: #000000; stroke-width: 1.8; stroke-linejoin: miter"/>
   </g>
   <g id="patch_129">
    <path d="M 301.14344 522.90344 
L 301.14344 544.85656 
L 323.09656 544.85656 
L 323.09656 522.90344 
L 301.14344 522.90344 
z
" clip-path="url(#pe40512fd88)" style="fill: none; stroke: #000000; stroke-width: 1.8; stroke-linejoin: miter"/>
   </g>
   <g id="patch_130">
    <path d="M 301.14344 467.46344 
L 301.14344 489.41656 
L 323.09656 489.41656 
L 323.09656 467.46344 
L 301.14344 467.46344 
z
" clip-path="url(#pe40512fd88)" style="fill: none; stroke: #000000; stroke-width: 1.8; stroke-linejoin: miter"/>
   </g>
   <g id="patch_131">
    <path d="M 301.14344 412.02344 
L 301.14344 433.97656 
L 323.09656 433.97656 
L 323.09656 412.02344 
L 301.14344 412.02344 
z
" clip-path="url(#pe40512fd88)" style="fill: none; stroke: #000000; stroke-width: 1.8; stroke-linejoin: miter"/>
   </g>
   <g id="patch_132">
    <path d="M 301.14344 356.58344 
L 301.14344 378.53656 
L 323.09656 378.53656 
L 323.09656 356.58344 
L 301.14344 356.58344 
z
" clip-path="url(#pe40512fd88)" style="fill: none; stroke: #000000; stroke-width: 1.8; stroke-linejoin: miter"/>
   </g>
   <g id="patch_133">
    <path d="M 301.14344 301.14344 
L 301.14344 323.09656 
L 323.09656 323.09656 
L 323.09656 301.14344 
L 301.14344 301.14344 
z
" clip-path="url(#pe40512fd88)" style="fill: none; stroke: #000000; stroke-width: 1.8; stroke-linejoin: miter"/>
   </g>
   <g id="patch_134">
    <path d="M 301.14344 245.70344 
L 301.14344 267.65656 
L 323.09656 267.65656 
L 323.09656 245.70344 
L 301.14344 245.70344 
z
" clip-path="url(#pe40512fd88)" style="fill: none; stroke: #000000; stroke-width: 1.8; stroke-linejoin: miter"/>
   </g>
   <g id="patch_135">
    <path d="M 301.14344 190.26344 
L 301.14344 212.21656 
L 323.09656 212.21656 
L 323.09656 190.26344 
L 301.14344 190.26344 
z
" clip-path="url(#pe40512fd88)" style="fill: none; stroke: #000000; stroke-width: 1.8; stroke-linejoin: miter"/>
   </g>
   <g id="patch_136">
    <path d="M 301.14344 134.82344 
L 301.14344 156.77656 
L 323.09656 156.77656 
L 323.09656 134.82344 
L 301.14344 134.82344 
z
" clip-path="url(#pe40512fd88)" style="fill: none; stroke: #000000; stroke-width: 1.8; stroke-linejoin: miter"/>
   </g>
   <g id="patch_137">
    <path d="M 301.14344 79.38344 
L 301.14344 101.33656 
L 323.09656 101.33656 
L 323.09656 79.38344 
L 301.14344 79.38344 
z
" clip-path="url(#pe40512fd88)" style="fill: none; stroke: #000000; stroke-width: 1.8; stroke-linejoin: miter"/>
   </g>
   <g id="patch_138">
    <path d="M 301.14344 23.94344 
L 301.14344 45.89656 
L 323.09656 45.89656 
L 323.09656 23.94344 
L 301.14344 23.94344 
z
" clip-path="url(#pe40512fd88)" style="fill: none; stroke: #000000; stroke-width: 1.8; stroke-linejoin: miter"/>
   </g>
   <g id="patch_139">
    <path d="M 7.2 561.6 
L 339.84 561.6 
L 339.84 7.2 
L 7.2 7.2 
L 7.2 561.6 
z
" clip-path="url(#pe40512fd88)" style="fill: none; stroke: #000000; stroke-width: 3; stroke-linejoin: miter"/>
   </g>
  </g>
 </g>
 <defs>
  <clipPath id="pe40512fd88">
   <rect x="7.2" y="7.2" width="332.64" height="554.4"/>
  </clipPath>
 </defs>
</svg>
